<svg class="ul-MembersLinkButton_Svg" width="38" height="36" viewBox="0 0 38 36" xmlns="http://www.w3.org/2000/svg"><g fill="none" fill-rule="evenodd"><path class="mms-MemberMenuStylingModule_FallbackStroke" d="M16.5 13.5c4.43 0 8.444 1.481 11.348 3.885 2.867 2.372 4.652 5.647 4.652 9.27 0 1.503-.306 2.723-.883 3.708-.614 1.05-1.533 1.828-2.685 2.41C25.96 34.277 21.49 34.5 16.5 34.5c-4.99 0-9.46-.223-12.432-1.727-1.152-.582-2.07-1.36-2.685-2.41C.806 29.378.5 28.158.5 26.655c0-3.623 1.785-6.898 4.652-9.27C8.056 14.98 12.07 13.5 16.5 13.5z" stroke="#9C9C9C" fill="#FDFFFF"></path><ellipse fill="#EEF0F0" cx="16.5" cy="10" rx="5.5" ry="7"></ellipse><circle class="mms-MemberMenuStylingModule_FallbackStroke" stroke="#9C9C9C" fill="#FDFFFF" cx="16.5" cy="7.5" r="7"></circle><g class="mms-MemberMenuStylingModule_MyAccount-wheel"><g transform="translate(18 16)"><path class="mms-MemberMenuStylingModule_FallbackStroke" d="M10.753-.555l.39 2.149c.599.165 1.168.4 1.7.696h0l1.196-1.196 3.032 2.358-1.244 1.796c.3.529.54 1.096.71 1.693h1.691l.477 3.812-2.149.39a7.714 7.714 0 01-.696 1.7h0l1.196 1.196-2.358 3.032-1.796-1.244c-.529.3-1.096.54-1.693.71h0v1.691l-3.812.477-.39-2.149a7.714 7.714 0 01-1.7-.696h0l-1.196 1.196-3.032-2.358 1.244-1.796a7.716 7.716 0 01-.71-1.693h0-1.691l-.477-3.812 2.149-.39c.165-.599.4-1.168.696-1.7h0L1.094 4.111 3.452 1.08l1.796 1.244c.529-.3 1.096-.54 1.693-.71h0V-.079l3.812-.477z" stroke="#979797" fill="#FDFFFF"></path><circle class="mms-MemberMenuStylingModule_FallbackStroke" stroke="#9C9C9C" fill="#EEF0F0" cx="9.075" cy="9.075" r="2.75"></circle></g></g></g></svg>