<svg class="ul-MembersLinkButton_Svg" xmlns="http://www.w3.org/2000/svg" width="34" height="31" viewBox="0 0 34 31"><g fill="none" fill-rule="evenodd"><path class="mms-MemberMenuStylingModule_Bank-inside mms-MemberMenuStylingModule_FallbackStroke" d="M27.5.518V6.5H.5V4c.506-.53.9-.719 1.418-.904 1.145-.409 2.863-.774 5.153-1.101C11.639 1.342 18.449.851 27.5.518h0z" stroke="#9C9C9C" fill="#EEF0F0"></path><path class="mms-MemberMenuStylingModule_FallbackStroke" d="M.5 5.569c3.226.34 13.432.485 30.903.497h0l1.286.001h.811V30.5H3c-.69 0-1.315-.28-1.768-.732A2.492 2.492 0 01.5 28h0z" stroke="#9C9C9C" fill="#FDFFFF"></path><path class="mms-MemberMenuStylingModule_FallbackStroke" d="M33.471 16.25v6.314h-7.814a3.147 3.147 0 01-2.232-.924 3.147 3.147 0 01-.925-2.233c0-.872.353-1.661.925-2.232a3.147 3.147 0 012.232-.925h7.814z" stroke="#9C9C9C" fill="#FDFFFF"></path><path class="mms-MemberMenuStylingModule_FallbackFill" d="M25.329 19h8.642v1H25.33a.5.5 0 010-1z" fill="#9C9C9C"></path></g></svg>