
<svg width="48px" height="52px" viewBox="0 0 48 52" xmlns="http://www.w3.org/2000/svg" xmlns:xlink="http://www.w3.org/1999/xlink"><defs><path d="M10.22 49.935c.079-8.326.118-13.766.118-16.32 0-2.553-.161-6.661-.484-12.324l-1.63 3.825c-1.213.21-2.806-.165-4.778-1.125-1.92-.933-3.059-1.912-3.418-2.937L0 20.969 4.725 9.16c.809-2.154 1.936-3.546 3.381-4.176l8.278-3.621L17.7 0c2.353.522 4.453.783 6.3.784 1.837.001 3.937-.26 6.298-.784l1.315 1.363 8.162 3.572c1.502.604 2.669 2.013 3.499 4.225L48 20.97c-.325 1.055-1.473 2.063-3.446 3.022-1.972.96-3.565 1.335-4.778 1.125l-1.63-3.825c-.323 5.467-.484 9.575-.484 12.325s.04 8.19.119 16.319C37.246 50.399 30.623 51 24 51c-6.623 0-13.246-.6-13.78-1.065Z" id="a"/><path d="m.68 48.253.061-30.291L0 8.992c1.462-3.65 2.607-5.77 3.435-6.364.146-.104 1.987-.98 5.523-2.628 1.595 1.644 3.194 2.465 5.93 2.463h.007c2.736.002 4.35-.819 5.945-2.463 3.185 1.403 5.02 2.28 5.508 2.628.827.593 1.972 2.715 3.434 6.364l-.74 8.97.047 30.29H.68Z" id="c"/><path d="M7.678 0c4.24 0 7.677 2.35 7.677 5.25 0 1.314-1.183 2.775-3.55 4.383l-.43.285-.224.144-.467.29-.242.146-.504.294c-.172.099-.348.198-.528.298l-.553.3-.286.151-.59.305-.303.154-.602-.307a48.69 48.69 0 0 1-.578-.303l-.552-.3c-.18-.1-.357-.2-.529-.298l-.503-.294-.48-.291a27.356 27.356 0 0 1-.454-.289l-.43-.285C1.183 8.025 0 6.564 0 5.25 0 2.35 3.437 0 7.678 0Zm0 1.089c-3.834 0-6.755 1.997-6.755 4.1 0 .684.75 1.648 2.276 2.803l.366.27.194.137.407.279.214.142.45.289.477.294.25.149.518.302.548.308.575.313.48.251.48-.251.575-.313.277-.155.534-.305c.173-.1.341-.2.505-.3l.478-.294.45-.289.214-.142.407-.28.38-.273.353-.266.324-.26c1.14-.938 1.726-1.734 1.774-2.33l.003-.08c0-2.102-2.92-4.1-6.754-4.1Z" id="e"/><path d="M0 0c.662.538 1.325.806 1.988.806C2.65.806 3.313.538 3.974 0 4.638.538 5.3.806 5.963.806 6.625.806 7.287.538 7.95 0v1.775c0 3.528-1.325 5.893-3.975 7.097C1.325 7.668 0 5.302 0 1.775V0Z" id="g"/></defs><g transform="translate(0.000000, 0.500000)" fill="none" fill-rule="evenodd"><mask id="b" fill="white"><use xlink:href="#a"/></mask><use fill="#F8F8F8" xlink:href="#a"/><path fill="#FF0238" mask="url(#b)" d="m38.696 13.523 4.191-5.264.29.18-4.37 5.41z"/><path fill="#FF0238" mask="url(#b)" transform="translate(7.041180, 11.053819) scale(-1, 1) translate(-7.041180, -11.053819)" d="m4.8 13.523 4.192-5.264.29.18-4.37 5.41z"/><g mask="url(#b)"><g transform="translate(9.108796, 3.747059)"><mask id="d" fill="white"><use xlink:href="#c"/></mask><use fill="#DFDFDF" xlink:href="#c"/><g opacity="0.199079241" mask="url(#d)"><path d="M14.14 41.753h.64l.068.11.096-.11h.615l.339.347h-.758l.852.76h.758l.873.794v.639l.702.656.085-.067v-.5l.408.358v.383l-.152.125.152.143v.4l-.408.381v-.67l-.858.743v.7l-.802.814h-.758l-.79.714h.644l-.35.44h-.552l-.096-.169-.068.168h-.564l-.432-.439h.714l-.714-.714h-.782l-.871-.814v-.7l-.743-.676v.603l-.497-.38v-.4l.165-.144-.165-.125v-.383l.497-.358v.567l.743-.567v-.728l.871-.795h.782l.714-.759h-.714l.357-.347Z" fill="#000000"/><path d="M14.156 41.787h.63l.063.109.089-.109h.57l.308.287h-.748l.92.805h.755l.84.785v.638l.743.701.121-.095v-.464l.331.29v.38l-.175.123.175.176v.36l-.331.3v-.64l-.929.788v.69l-.775.804h-.755l-.868.788h.665l-.304.375h-.497l-.135-.227-.11.227h-.52l-.357-.375h.69l-.772-.788h-.762l-.863-.803v-.691l-.799-.734v.633l-.414-.347v-.395l.153-.141-.153-.124v-.378l.414-.291v.56l.799-.622v-.718l.863-.785h.792l.742-.805h-.69l.294-.287Z" fill="#DFDFDF"/><path d="m17.185 43.281-.028 4-.146.156h-4.298l-.147-.157v-3.999h4.62Zm-.427.389h-3.81v3.388h3.81V43.67Z" fill="#000000"/><path d="m17.151 43.301-.017 3.988-.124.13h-4.288l-.137-.145V43.3h4.566Zm-.393.369h-3.81v3.388h3.81V43.67Z" fill="#DFDFDF"/><path d="m17.938 45.354-3.016 2.944L11.8 45.23l2.993-2.86 3.144 2.984Zm-3.152-2.498-2.511 2.383 2.647 2.65 2.48-2.391-2.616-2.642Z" fill="#000000"/><path d="m17.894 45.353-2.966 2.903-3.065-3.025 2.934-2.813 3.097 2.935Zm-3.108-2.497-2.511 2.383 2.647 2.65 2.48-2.391-2.616-2.642Z" fill="#DFDFDF"/><path fill="#000000" d="m14.853 43.972.385-.36v1.35h1.52l-.35.33.35.373h-1.546l.026 1.393-.383-.338-.388.338v-1.393h-1.49l.36-.373-.389-.33h1.519v-1.35z"/><path fill="#DFDFDF" d="m14.855 44.004.37-.356v1.335h1.49l-.333.31.333.358h-1.52l.03 1.377-.37-.33-.37.33V45.65h-1.478l.352-.359-.368-.31h1.493v-1.334z"/><path fill="#000000" d="m15.817 44.371.526.018-.954.955 1.075 1.075-.481-.015-.016.511-1.093-1.093-.967 1.003-.032-.51-.513-.035.985-.985-1.054-1.054.518-.009-.042-.508 1.074 1.074.955-.954z"/><path fill="#DFDFDF" d="m15.795 44.395.514.01-.944.944 1.054 1.054-.454-.017-.019.49-1.075-1.076-.952.995-.029-.495-.495-.03.974-.973-1.044-1.044.502-.005-.042-.479 1.056 1.056.944-.944z"/><path d="M14.14 34.353h.64l.068.11.096-.11h.615l.339.347h-.758l.852.76h.758l.873.794v.639l.702.656.085-.067v-.5l.408.358v.383l-.152.125.152.143v.4l-.408.381v-.67l-.858.743v.7l-.802.814h-.758l-.79.714h.644l-.35.44h-.552l-.096-.169-.068.168h-.564l-.432-.439h.714l-.714-.714h-.782l-.871-.814v-.7l-.743-.676v.603l-.497-.38v-.4l.165-.144-.165-.125v-.383l.497-.358v.567l.743-.567v-.728l.871-.795h.782l.714-.759h-.714l.357-.347Z" fill="#000000"/><path d="M14.156 34.387h.63l.063.109.089-.109h.57l.308.287h-.748l.92.805h.755l.84.785v.638l.743.701.121-.095v-.464l.331.29v.38l-.175.123.175.176v.36l-.331.3v-.64l-.929.788v.69l-.775.804h-.755l-.868.788h.665l-.304.375h-.497l-.135-.227-.11.227h-.52l-.357-.375h.69l-.772-.788h-.762l-.863-.803v-.691l-.799-.734v.633l-.414-.347v-.395l.153-.141-.153-.124v-.378l.414-.291v.56l.799-.622v-.718l.863-.785h.792l.742-.805h-.69l.294-.287Z" fill="#DFDFDF"/><path d="m17.185 35.881-.028 4-.146.156h-4.298l-.147-.157v-3.999h4.62Zm-.427.389h-3.81v3.388h3.81V36.27Z" fill="#000000"/><path d="m17.151 35.901-.017 3.988-.124.13h-4.288l-.137-.145V35.9h4.566Zm-.393.369h-3.81v3.388h3.81V36.27Z" fill="#DFDFDF"/><path d="m17.938 37.954-3.016 2.944L11.8 37.83l2.993-2.86 3.144 2.984Zm-3.152-2.498-2.511 2.383 2.647 2.65 2.48-2.391-2.616-2.642Z" fill="#000000"/><path d="m17.894 37.953-2.966 2.903-3.065-3.025 2.934-2.813 3.097 2.935Zm-3.108-2.497-2.511 2.383 2.647 2.65 2.48-2.391-2.616-2.642Z" fill="#DFDFDF"/><path fill="#000000" d="m14.853 36.572.385-.36v1.35h1.52l-.35.33.35.373h-1.546l.026 1.393-.383-.338-.388.338v-1.393h-1.49l.36-.373-.389-.33h1.519v-1.35z"/><path fill="#DFDFDF" d="m14.855 36.604.37-.356v1.335h1.49l-.333.31.333.358h-1.52l.03 1.377-.37-.33-.37.33V38.25h-1.478l.352-.359-.368-.31h1.493v-1.334z"/><path fill="#000000" d="m15.817 36.971.526.018-.954.955 1.075 1.075-.481-.015-.016.511-1.093-1.093-.967 1.003-.032-.51-.513-.035.985-.985-1.054-1.054.518-.009-.042-.508 1.074 1.074.955-.954z"/><path fill="#DFDFDF" d="m15.795 36.995.514.01-.944.944 1.054 1.054-.454-.017-.019.49-1.075-1.076-.952.995-.029-.495-.495-.03.974-.973-1.044-1.044.502-.005-.042-.479 1.056 1.056.944-.944z"/><path d="M14.14 26.953h.64l.068.11.096-.11h.615l.339.347h-.758l.852.76h.758l.873.794v.639l.702.656.085-.067v-.5l.408.358v.383l-.152.125.152.143v.4l-.408.381v-.67l-.858.743v.7l-.802.814h-.758l-.79.714h.644l-.35.44h-.552l-.096-.169-.068.168h-.564l-.432-.439h.714l-.714-.714h-.782l-.871-.814v-.7l-.743-.676v.603l-.497-.38v-.4l.165-.144-.165-.125v-.383l.497-.358v.567l.743-.567v-.728l.871-.795h.782l.714-.759h-.714l.357-.347Z" fill="#000000"/><path d="M14.156 26.987h.63l.063.109.089-.109h.57l.308.287h-.748l.92.805h.755l.84.785v.638l.743.701.121-.095v-.464l.331.29v.38l-.175.123.175.176v.36l-.331.3v-.64l-.929.788v.69l-.775.804h-.755l-.868.788h.665l-.304.375h-.497l-.135-.227-.11.227h-.52l-.357-.375h.69l-.772-.788h-.762l-.863-.803v-.691l-.799-.734v.633l-.414-.347v-.395l.153-.141-.153-.124v-.378l.414-.291v.56l.799-.622v-.718l.863-.785h.792l.742-.805h-.69l.294-.287Z" fill="#DFDFDF"/><path d="m17.185 28.481-.028 4-.146.156h-4.298l-.147-.157v-3.999h4.62Zm-.427.389h-3.81v3.388h3.81V28.87Z" fill="#000000"/><path d="m17.151 28.501-.017 3.988-.124.13h-4.288l-.137-.145V28.5h4.566Zm-.393.369h-3.81v3.388h3.81V28.87Z" fill="#DFDFDF"/><path d="m17.938 30.554-3.016 2.944L11.8 30.43l2.993-2.86 3.144 2.984Zm-3.152-2.498-2.511 2.383 2.647 2.65 2.48-2.391-2.616-2.642Z" fill="#000000"/><path d="m17.894 30.553-2.966 2.903-3.065-3.025 2.934-2.813 3.097 2.935Zm-3.108-2.497-2.511 2.383 2.647 2.65 2.48-2.391-2.616-2.642Z" fill="#DFDFDF"/><path fill="#000000" d="m14.853 29.172.385-.36v1.35h1.52l-.35.33.35.373h-1.546l.026 1.393-.383-.338-.388.338v-1.393h-1.49l.36-.373-.389-.33h1.519v-1.35z"/><path fill="#DFDFDF" d="m14.855 29.204.37-.356v1.335h1.49l-.333.31.333.358h-1.52l.03 1.377-.37-.33-.37.33V30.85h-1.478l.352-.359-.368-.31h1.493v-1.334z"/><path fill="#000000" d="m15.817 29.571.526.018-.954.955 1.075 1.075-.481-.015-.016.511-1.093-1.093-.967 1.003-.032-.51-.513-.035.985-.985-1.054-1.054.518-.009-.042-.508 1.074 1.074.955-.954z"/><path fill="#DFDFDF" d="m15.795 29.595.514.01-.944.944 1.054 1.054-.454-.017-.019.49L14.871 31l-.952.995-.029-.495-.495-.03.974-.973-1.044-1.044.502-.005-.042-.479 1.056 1.056.944-.944z"/><path d="M14.14 12.153h.64l.068.11.096-.11h.615l.339.347h-.758l.852.76h.758l.873.794v.639l.702.656.085-.067v-.5l.408.358v.383l-.152.125.152.143v.4l-.408.381v-.67l-.858.743v.7l-.802.814h-.758l-.79.714h.644l-.35.44h-.552l-.096-.169-.068.168h-.564l-.432-.439h.714l-.714-.714h-.782l-.871-.814v-.7l-.743-.676v.603l-.497-.38v-.4l.165-.144-.165-.125v-.383l.497-.358v.567l.743-.567v-.728l.871-.795h.782l.714-.759h-.714l.357-.347Z" fill="#000000"/><path d="M14.156 12.187h.63l.063.109.089-.109h.57l.308.287h-.748l.92.805h.755l.84.785v.638l.743.701.121-.095v-.464l.331.29v.38l-.175.123.175.176v.36l-.331.3v-.64l-.929.788v.69l-.775.804h-.755l-.868.788h.665l-.304.375h-.497l-.135-.227-.11.227h-.52l-.357-.375h.69l-.772-.788h-.762l-.863-.803v-.691l-.799-.734v.633l-.414-.347v-.395l.153-.141-.153-.124v-.378l.414-.291v.56l.799-.622v-.718l.863-.785h.792l.742-.805h-.69l.294-.287Z" fill="#DFDFDF"/><path d="m17.185 13.681-.028 4-.146.156h-4.298l-.147-.157v-3.999h4.62Zm-.427.389h-3.81v3.388h3.81V14.07Z" fill="#000000"/><path d="m17.151 13.701-.017 3.988-.124.13h-4.288l-.137-.145V13.7h4.566Zm-.393.369h-3.81v3.388h3.81V14.07Z" fill="#DFDFDF"/><path d="m17.938 15.754-3.016 2.944L11.8 15.63l2.993-2.86 3.144 2.984Zm-3.152-2.498-2.511 2.383 2.647 2.65 2.48-2.391-2.616-2.642Z" fill="#000000"/><path d="m17.894 15.753-2.966 2.903-3.065-3.025 2.934-2.813 3.097 2.935Zm-3.108-2.497-2.511 2.383 2.647 2.65 2.48-2.391-2.616-2.642Z" fill="#DFDFDF"/><path fill="#000000" d="m14.853 14.372.385-.36v1.35h1.52l-.35.33.35.373h-1.546l.026 1.393-.383-.338-.388.338v-1.393h-1.49l.36-.373-.389-.33h1.519v-1.35z"/><path fill="#DFDFDF" d="m14.855 14.404.37-.356v1.335h1.49l-.333.31.333.358h-1.52l.03 1.377-.37-.33-.37.33V16.05h-1.478l.352-.359-.368-.31h1.493v-1.334z"/><path fill="#000000" d="m15.817 14.771.526.018-.954.955 1.075 1.075-.481-.015-.016.511-1.093-1.093-.967 1.003-.032-.51-.513-.035.985-.985-1.054-1.054.518-.009-.042-.508 1.074 1.074.955-.954z"/><path fill="#DFDFDF" d="m15.795 14.795.514.01-.944.944 1.054 1.054-.454-.017-.019.49-1.075-1.076-.952.995-.029-.495-.495-.03.974-.973-1.044-1.044.502-.005-.042-.479 1.056 1.056.944-.944z"/><path d="M14.14 4.753h.64l.068.11.096-.11h.615l.339.347h-.758l.852.76h.758l.873.794v.639l.702.656.085-.067v-.5l.408.358v.383l-.152.125.152.143v.4l-.408.381v-.67l-.858.743v.7l-.802.814h-.758l-.79.714h.644l-.35.44h-.552l-.096-.169-.068.168h-.564l-.432-.439h.714l-.714-.714h-.782l-.871-.814v-.7l-.743-.676v.603l-.497-.38v-.4l.165-.144-.165-.125V7.74l.497-.358v.567l.743-.567v-.728l.871-.795h.782l.714-.759h-.714l.357-.347Z" fill="#000000"/><path d="M14.156 4.787h.63l.063.109.089-.109h.57l.308.287h-.748l.92.805h.755l.84.785v.638l.743.701.121-.095v-.464l.331.29v.38l-.175.123.175.176v.36l-.331.3v-.64l-.929.788v.69l-.775.804h-.755l-.868.788h.665l-.304.375h-.497l-.135-.227-.11.227h-.52l-.357-.375h.69l-.772-.788h-.762l-.863-.803V9.22l-.799-.734v.633l-.414-.347v-.395l.153-.141-.153-.124v-.378l.414-.291v.56l.799-.622v-.718l.863-.785h.792l.742-.805h-.69l.294-.287Z" fill="#DFDFDF"/><path d="m17.185 6.281-.028 4-.146.156h-4.298l-.147-.157V6.281h4.62Zm-.427.389h-3.81v3.388h3.81V6.67Z" fill="#000000"/><path d="m17.151 6.301-.017 3.988-.124.13h-4.288l-.137-.145V6.3h4.566Zm-.393.369h-3.81v3.388h3.81V6.67Z" fill="#DFDFDF"/><path d="m17.938 8.354-3.016 2.944L11.8 8.23l2.993-2.86 3.144 2.984Zm-3.152-2.498-2.511 2.383 2.647 2.65 2.48-2.391-2.616-2.642Z" fill="#000000"/><path d="m17.894 8.353-2.966 2.903-3.065-3.025 2.934-2.813 3.097 2.935Zm-3.108-2.497-2.511 2.383 2.647 2.65 2.48-2.391-2.616-2.642Z" fill="#DFDFDF"/><path fill="#000000" d="m14.853 6.972.385-.36v1.35h1.52l-.35.33.35.373h-1.546l.026 1.393-.383-.338-.388.338V8.665h-1.49l.36-.373-.389-.33h1.519v-1.35z"/><path fill="#DFDFDF" d="m14.855 7.004.37-.356v1.335h1.49l-.333.31.333.358h-1.52l.03 1.377-.37-.33-.37.33V8.65h-1.478l.352-.359-.368-.31h1.493V6.649z"/><path fill="#000000" d="m15.817 7.371.526.018-.954.955 1.075 1.075-.481-.015-.016.511-1.093-1.093-.967 1.003-.032-.51-.513-.035.985-.985-1.054-1.054.518-.009-.042-.508 1.074 1.074.955-.954z"/><path fill="#DFDFDF" d="m15.795 7.395.514.01-.944.944 1.054 1.054-.454-.017-.019.49L14.871 8.8l-.952.995-.029-.495-.495-.03.974-.973-1.044-1.044.502-.005-.042-.479 1.056 1.056.944-.944z"/><path fill="#000000" d="m17.552 2.545-.802.814h-.758l-.79.714h.644l-.35.44h-.552l-.096-.169-.068.168h-.564l-.432-.439h.714l-.714-.714h-.782l-.871-.814z"/><path fill="#DFDFDF" d="m17.518 2.512-.775.803h-.755l-.868.788h.665l-.304.375h-.497l-.135-.227-.11.227h-.52l-.357-.375h.69l-.772-.788h-.762l-.863-.803z"/><path fill="#000000" d="m15.817-.029.526.018-.954.955 1.075 1.075-.481-.015-.016.511-1.093-1.093-.967 1.003-.032-.51-.513-.035.985-.985-1.054-1.054.518-.009-.042-.508L14.843.398l.955-.954z"/><path fill="#DFDFDF" d="m15.795-.005.514.01-.944.944 1.054 1.054-.454-.017-.019.49L14.871 1.4l-.952.995-.029-.495-.495-.03.974-.973-1.044-1.044.502-.005-.042-.479L14.841.425l.944-.944z"/><path d="M14.14 19.553h.64l.068.11.096-.11h.615l.339.347h-.758l.852.76h.758l.873.794v.639l.702.656.085-.067v-.5l.408.358v.383l-.152.125.152.143v.4l-.408.381v-.67l-.858.743v.7l-.802.814h-.758l-.79.714h.644l-.35.44h-.552l-.096-.169-.068.168h-.564l-.432-.439h.714l-.714-.714h-.782l-.871-.814v-.7l-.743-.676v.603l-.497-.38v-.4l.165-.144-.165-.125v-.383l.497-.358v.567l.743-.567v-.728l.871-.795h.782l.714-.759h-.714l.357-.347Z" fill="#000000"/><path d="M14.156 19.587h.63l.063.109.089-.109h.57l.308.287h-.748l.92.805h.755l.84.785v.638l.743.701.121-.095v-.464l.331.29v.38l-.175.123.175.176v.36l-.331.3v-.64l-.929.788v.69l-.775.804h-.755l-.868.788h.665l-.304.375h-.497l-.135-.227-.11.227h-.52l-.357-.375h.69l-.772-.788h-.762l-.863-.803v-.691l-.799-.734v.633l-.414-.347v-.395l.153-.141-.153-.124v-.378l.414-.291v.56l.799-.622v-.718l.863-.785h.792l.742-.805h-.69l.294-.287Z" fill="#DFDFDF"/><path d="m17.185 21.081-.028 4-.146.156h-4.298l-.147-.157v-3.999h4.62Zm-.427.389h-3.81v3.388h3.81V21.47Z" fill="#000000"/><path d="m17.151 21.101-.017 3.988-.124.13h-4.288l-.137-.145V21.1h4.566Zm-.393.369h-3.81v3.388h3.81V21.47Z" fill="#DFDFDF"/><path d="m17.938 23.154-3.016 2.944L11.8 23.03l2.993-2.86 3.144 2.984Zm-3.152-2.498-2.511 2.383 2.647 2.65 2.48-2.391-2.616-2.642Z" fill="#000000"/><path d="m17.894 23.153-2.966 2.903-3.065-3.025 2.934-2.813 3.097 2.935Zm-3.108-2.497-2.511 2.383 2.647 2.65 2.48-2.391-2.616-2.642Z" fill="#DFDFDF"/><path fill="#000000" d="m14.853 21.772.385-.36v1.35h1.52l-.35.33.35.373h-1.546l.026 1.393-.383-.338-.388.338v-1.393h-1.49l.36-.373-.389-.33h1.519v-1.35z"/><path fill="#DFDFDF" d="m14.855 21.804.37-.356v1.335h1.49l-.333.31.333.358h-1.52l.03 1.377-.37-.33-.37.33V23.45h-1.478l.352-.359-.368-.31h1.493v-1.334z"/><path fill="#000000" d="m15.817 22.171.526.018-.954.955 1.075 1.075-.481-.015-.016.511-1.093-1.093-.967 1.003-.032-.51-.513-.035.985-.985-1.054-1.054.518-.009-.042-.508 1.074 1.074.955-.954z"/><path fill="#DFDFDF" d="m15.795 22.195.514.01-.944.944 1.054 1.054-.454-.017-.019.49-1.075-1.076-.952.995-.029-.495-.495-.03.974-.973-1.044-1.044.502-.005-.042-.479 1.056 1.056.944-.944z"/><path d="M9.14 45.553h.64l.068.11.096-.11h.615l.339.347h-.758l.852.76h.758l.873.794H7.13l.871-.795h.782l.714-.759h-.714l.357-.347Z" fill="#000000"/><path d="M9.156 45.587h.63l.063.109.089-.109h.57l.308.287h-.748l.92.805h.755l.84.785v.638l.864.142h-7.09l.798-.062v-.718l.863-.785h.792l.742-.805h-.69l.294-.287Z" fill="#DFDFDF"/><path d="m12.938 49.154-3.016 2.944L6.8 49.03l2.993-2.86 3.144 2.984Zm-3.152-2.498-2.511 2.383 2.647 2.65 2.48-2.391-2.616-2.642Z" fill="#000000"/><path d="m12.894 49.153-2.966 2.903-3.065-3.025 2.934-2.813 3.097 2.935Zm-3.108-2.497-2.511 2.383 2.647 2.65 2.48-2.391-2.616-2.642Z" fill="#DFDFDF"/><path fill="#000000" d="m10.817 48.171.526.018-.954.955 1.075 1.075-.481-.015-.016.511-1.093-1.093-.967 1.003-.032-.51-.513-.035.985-.985-1.054-1.054.518-.009-.042-.508 1.074 1.074.955-.954z"/><path fill="#DFDFDF" d="m10.795 48.195.514.01-.944.944 1.054 1.054-.454-.017-.019.49L9.871 49.6l-.952.995-.029-.495-.495-.03.974-.973-1.044-1.044.502-.005-.042-.479 1.056 1.056.944-.944z"/><path d="M9.14 38.153h.64l.068.11.096-.11h.615l.339.347h-.758l.852.76h.758l.873.794v.639l.702.656.085-.067v-.5l.408.358v.383l-.152.125.152.143v.4l-.408.381v-.67l-.858.743v.7l-.802.814h-.758l-.79.714h.644l-.35.44h-.552l-.096-.169-.068.168h-.564l-.432-.439h.714l-.714-.714h-.782l-.871-.814v-.7l-.743-.676v.603l-.497-.38v-.4l.165-.144-.165-.125v-.383l.497-.358v.567l.743-.567v-.728l.871-.795h.782l.714-.759h-.714l.357-.347Z" fill="#000000"/><path d="M9.156 38.187h.63l.063.109.089-.109h.57l.308.287h-.748l.92.805h.755l.84.785v.638l.743.701.121-.095v-.464l.331.29v.38l-.175.123.175.176v.36l-.331.3v-.64l-.929.788v.69l-.775.804h-.755l-.868.788h.665l-.304.375h-.497l-.135-.227-.11.227h-.52l-.357-.375h.69l-.772-.788h-.762l-.863-.803v-.691l-.799-.734v.633l-.414-.347v-.395l.153-.141-.153-.124v-.378l.414-.291v.56l.799-.622v-.718l.863-.785h.792l.742-.805h-.69l.294-.287Z" fill="#DFDFDF"/><path d="m12.185 39.681-.028 4-.146.156H7.713l-.147-.157v-3.999h4.62Zm-.427.389h-3.81v3.388h3.81V40.07Z" fill="#000000"/><path d="m12.151 39.701-.017 3.988-.124.13H7.722l-.137-.145V39.7h4.566Zm-.393.369h-3.81v3.388h3.81V40.07Z" fill="#DFDFDF"/><path d="m12.938 41.754-3.016 2.944L6.8 41.63l2.993-2.86 3.144 2.984Zm-3.152-2.498-2.511 2.383 2.647 2.65 2.48-2.391-2.616-2.642Z" fill="#000000"/><path d="m12.894 41.753-2.966 2.903-3.065-3.025 2.934-2.813 3.097 2.935Zm-3.108-2.497-2.511 2.383 2.647 2.65 2.48-2.391-2.616-2.642Z" fill="#DFDFDF"/><path fill="#000000" d="m9.853 40.372.385-.36v1.35h1.52l-.35.33.35.373h-1.546l.026 1.393-.383-.338-.388.338v-1.393h-1.49l.36-.373-.389-.33h1.519v-1.35z"/><path fill="#DFDFDF" d="m9.855 40.404.37-.356v1.335h1.49l-.333.31.333.358h-1.52l.03 1.377-.37-.33-.37.33V42.05H8.006l.352-.359-.368-.31h1.493v-1.334z"/><path fill="#000000" d="m10.817 40.771.526.018-.954.955 1.075 1.075-.481-.015-.016.511-1.093-1.093-.967 1.003-.032-.51-.513-.035.985-.985-1.054-1.054.518-.009-.042-.508 1.074 1.074.955-.954z"/><path fill="#DFDFDF" d="m10.795 40.795.514.01-.944.944 1.054 1.054-.454-.017-.019.49L9.871 42.2l-.952.995-.029-.495-.495-.03.974-.973-1.044-1.044.502-.005-.042-.479 1.056 1.056.944-.944z"/><path d="M9.14 30.753h.64l.068.11.096-.11h.615l.339.347h-.758l.852.76h.758l.873.794v.639l.702.656.085-.067v-.5l.408.358v.383l-.152.125.152.143v.4l-.408.381v-.67l-.858.743v.7l-.802.814h-.758l-.79.714h.644l-.35.44h-.552l-.096-.169-.068.168h-.564l-.432-.439h.714l-.714-.714h-.782l-.871-.814v-.7l-.743-.676v.603l-.497-.38v-.4l.165-.144-.165-.125v-.383l.497-.358v.567l.743-.567v-.728l.871-.795h.782l.714-.759h-.714l.357-.347Z" fill="#000000"/><path d="M9.156 30.787h.63l.063.109.089-.109h.57l.308.287h-.748l.92.805h.755l.84.785v.638l.743.701.121-.095v-.464l.331.29v.38l-.175.123.175.176v.36l-.331.3v-.64l-.929.788v.69l-.775.804h-.755l-.868.788h.665l-.304.375h-.497l-.135-.227-.11.227h-.52l-.357-.375h.69l-.772-.788h-.762l-.863-.803v-.691l-.799-.734v.633l-.414-.347v-.395l.153-.141-.153-.124v-.378l.414-.291v.56l.799-.622v-.718l.863-.785h.792l.742-.805h-.69l.294-.287Z" fill="#DFDFDF"/><path d="m12.185 32.281-.028 4-.146.156H7.713l-.147-.157v-3.999h4.62Zm-.427.389h-3.81v3.388h3.81V32.67Z" fill="#000000"/><path d="m12.151 32.301-.017 3.988-.124.13H7.722l-.137-.145V32.3h4.566Zm-.393.369h-3.81v3.388h3.81V32.67Z" fill="#DFDFDF"/><path d="m12.938 34.354-3.016 2.944L6.8 34.23l2.993-2.86 3.144 2.984Zm-3.152-2.498-2.511 2.383 2.647 2.65 2.48-2.391-2.616-2.642Z" fill="#000000"/><path d="m12.894 34.353-2.966 2.903-3.065-3.025 2.934-2.813 3.097 2.935Zm-3.108-2.497-2.511 2.383 2.647 2.65 2.48-2.391-2.616-2.642Z" fill="#DFDFDF"/><path fill="#000000" d="m9.853 32.972.385-.36v1.35h1.52l-.35.33.35.373h-1.546l.026 1.393-.383-.338-.388.338v-1.393h-1.49l.36-.373-.389-.33h1.519v-1.35z"/><path fill="#DFDFDF" d="m9.855 33.004.37-.356v1.335h1.49l-.333.31.333.358h-1.52l.03 1.377-.37-.33-.37.33V34.65H8.006l.352-.359-.368-.31h1.493v-1.334z"/><path fill="#000000" d="m10.817 33.371.526.018-.954.955 1.075 1.075-.481-.015-.016.511-1.093-1.093-.967 1.003-.032-.51-.513-.035.985-.985-1.054-1.054.518-.009-.042-.508 1.074 1.074.955-.954z"/><path fill="#DFDFDF" d="m10.795 33.395.514.01-.944.944 1.054 1.054-.454-.017-.019.49L9.871 34.8l-.952.995-.029-.495-.495-.03.974-.973-1.044-1.044.502-.005-.042-.479 1.056 1.056.944-.944z"/><path d="M9.14 15.953h.64l.068.11.096-.11h.615l.339.347h-.758l.852.76h.758l.873.794v.639l.702.656.085-.067v-.5l.408.358v.383l-.152.125.152.143v.4l-.408.381v-.67l-.858.743v.7l-.802.814h-.758l-.79.714h.644l-.35.44h-.552l-.096-.169-.068.168h-.564l-.432-.439h.714l-.714-.714h-.782l-.871-.814v-.7l-.743-.676v.603l-.497-.38v-.4l.165-.144-.165-.125v-.383l.497-.358v.567l.743-.567v-.728l.871-.795h.782l.714-.759h-.714l.357-.347Z" fill="#000000"/><path d="M9.156 15.987h.63l.063.109.089-.109h.57l.308.287h-.748l.92.805h.755l.84.785v.638l.743.701.121-.095v-.464l.331.29v.38l-.175.123.175.176v.36l-.331.3v-.64l-.929.788v.69l-.775.804h-.755l-.868.788h.665l-.304.375h-.497l-.135-.227-.11.227h-.52l-.357-.375h.69l-.772-.788h-.762l-.863-.803v-.691l-.799-.734v.633l-.414-.347v-.395l.153-.141-.153-.124v-.378l.414-.291v.56l.799-.622v-.718l.863-.785h.792l.742-.805h-.69l.294-.287Z" fill="#DFDFDF"/><path d="m12.185 17.481-.028 4-.146.156H7.713l-.147-.157v-3.999h4.62Zm-.427.389h-3.81v3.388h3.81V17.87Z" fill="#000000"/><path d="m12.151 17.501-.017 3.988-.124.13H7.722l-.137-.145V17.5h4.566Zm-.393.369h-3.81v3.388h3.81V17.87Z" fill="#DFDFDF"/><path d="m12.938 19.554-3.016 2.944L6.8 19.43l2.993-2.86 3.144 2.984Zm-3.152-2.498-2.511 2.383 2.647 2.65 2.48-2.391-2.616-2.642Z" fill="#000000"/><path d="m12.894 19.553-2.966 2.903-3.065-3.025 2.934-2.813 3.097 2.935Zm-3.108-2.497-2.511 2.383 2.647 2.65 2.48-2.391-2.616-2.642Z" fill="#DFDFDF"/><path fill="#000000" d="m9.853 18.172.385-.36v1.35h1.52l-.35.33.35.373h-1.546l.026 1.393-.383-.338-.388.338v-1.393h-1.49l.36-.373-.389-.33h1.519v-1.35z"/><path fill="#DFDFDF" d="m9.855 18.204.37-.356v1.335h1.49l-.333.31.333.358h-1.52l.03 1.377-.37-.33-.37.33V19.85H8.006l.352-.359-.368-.31h1.493v-1.334z"/><path fill="#000000" d="m10.817 18.571.526.018-.954.955 1.075 1.075-.481-.015-.016.511-1.093-1.093-.967 1.003-.032-.51-.513-.035.985-.985-1.054-1.054.518-.009-.042-.508 1.074 1.074.955-.954z"/><path fill="#DFDFDF" d="m10.795 18.595.514.01-.944.944 1.054 1.054-.454-.017-.019.49L9.871 20l-.952.995-.029-.495-.495-.03.974-.973-1.044-1.044.502-.005-.042-.479 1.056 1.056.944-.944z"/><path d="M9.14 8.553h.64l.068.11.096-.11h.615l.339.347h-.758l.852.76h.758l.873.794v.639l.702.656.085-.067v-.5l.408.358v.383l-.152.125.152.143v.4l-.408.381v-.67l-.858.743v.7l-.802.814h-.758l-.79.714h.644l-.35.44h-.552l-.096-.169-.068.168h-.564l-.432-.439h.714l-.714-.714h-.782l-.871-.814v-.7l-.743-.676v.603l-.497-.38v-.4l.165-.144-.165-.125v-.383l.497-.358v.567l.743-.567v-.728l.871-.795h.782l.714-.759h-.714l.357-.347Z" fill="#000000"/><path d="M9.156 8.587h.63l.063.109.089-.109h.57l.308.287h-.748l.92.805h.755l.84.785v.638l.743.701.121-.095v-.464l.331.29v.38l-.175.123.175.176v.36l-.331.3v-.64l-.929.788v.69l-.775.804h-.755l-.868.788h.665l-.304.375h-.497l-.135-.227-.11.227h-.52l-.357-.375h.69l-.772-.788h-.762l-.863-.803v-.691l-.799-.734v.633l-.414-.347v-.395l.153-.141-.153-.124v-.378l.414-.291v.56l.799-.622v-.718l.863-.785h.792l.742-.805h-.69l.294-.287Z" fill="#DFDFDF"/><path d="m12.185 10.081-.028 4-.146.156H7.713l-.147-.157v-3.999h4.62Zm-.427.389h-3.81v3.388h3.81V10.47Z" fill="#000000"/><path d="m12.151 10.101-.017 3.988-.124.13H7.722l-.137-.145V10.1h4.566Zm-.393.369h-3.81v3.388h3.81V10.47Z" fill="#DFDFDF"/><path d="m12.938 12.154-3.016 2.944L6.8 12.03l2.993-2.86 3.144 2.984ZM9.786 9.656l-2.511 2.383 2.647 2.65 2.48-2.391-2.616-2.642Z" fill="#000000"/><path d="m12.894 12.153-2.966 2.903-3.065-3.025 2.934-2.813 3.097 2.935ZM9.786 9.656l-2.511 2.383 2.647 2.65 2.48-2.391-2.616-2.642Z" fill="#DFDFDF"/><path fill="#000000" d="m9.853 10.772.385-.36v1.35h1.52l-.35.33.35.373h-1.546l.026 1.393-.383-.338-.388.338v-1.393h-1.49l.36-.373-.389-.33h1.519v-1.35z"/><path fill="#DFDFDF" d="m9.855 10.804.37-.356v1.335h1.49l-.333.31.333.358h-1.52l.03 1.377-.37-.33-.37.33V12.45H8.006l.352-.359-.368-.31h1.493v-1.334z"/><path fill="#000000" d="m10.817 11.171.526.018-.954.955 1.075 1.075-.481-.015-.016.511-1.093-1.093-.967 1.003-.032-.51-.513-.035.985-.985-1.054-1.054.518-.009-.042-.508 1.074 1.074.955-.954z"/><path fill="#DFDFDF" d="m10.795 11.195.514.01-.944.944 1.054 1.054-.454-.017-.019.49L9.871 12.6l-.952.995-.029-.495-.495-.03.974-.973-1.044-1.044.502-.005-.042-.479 1.056 1.056.944-.944z"/><path d="M9.14 1.153h.64l.068.11.096-.11h.615l.339.347h-.758l.852.76h.758l.873.794v.639l.702.656.085-.067v-.5l.408.358v.383l-.152.125.152.143v.4l-.408.381v-.67l-.858.743v.7l-.802.814h-.758l-.79.714h.644l-.35.44h-.552l-.096-.169-.068.168h-.564l-.432-.439h.714l-.714-.714h-.782l-.871-.814v-.7l-.743-.676v.603l-.497-.38v-.4l.165-.144-.165-.125V4.14l.497-.358v.567l.743-.567v-.728l.871-.795h.782l.714-.759h-.714l.357-.347Z" fill="#000000"/><path d="M9.156 1.187h.63l.063.109.089-.109h.57l.308.287h-.748l.92.805h.755l.84.785v.638l.743.701.121-.095v-.464l.331.29v.38l-.175.123.175.176v.36l-.331.3v-.64l-.929.788v.69l-.775.804h-.755l-.868.788h.665l-.304.375h-.497l-.135-.227-.11.227h-.52l-.357-.375h.69l-.772-.788h-.762l-.863-.803V5.62l-.799-.734v.633l-.414-.347v-.395l.153-.141-.153-.124v-.378l.414-.291v.56l.799-.622v-.718l.863-.785h.792l.742-.805h-.69l.294-.287Z" fill="#DFDFDF"/><path d="m12.185 2.681-.028 4-.146.156H7.713l-.147-.157V2.681h4.62Zm-.427.389h-3.81v3.388h3.81V3.07Z" fill="#000000"/><path d="m12.151 2.701-.017 3.988-.124.13H7.722l-.137-.145V2.7h4.566Zm-.393.369h-3.81v3.388h3.81V3.07Z" fill="#DFDFDF"/><path d="M12.938 4.754 9.922 7.698 6.8 4.63l2.993-2.86 3.144 2.984ZM9.786 2.256 7.275 4.639l2.647 2.65 2.48-2.391-2.616-2.642Z" fill="#000000"/><path d="M12.894 4.753 9.928 7.656 6.863 4.631l2.934-2.813 3.097 2.935ZM9.786 2.256 7.275 4.639l2.647 2.65 2.48-2.391-2.616-2.642Z" fill="#DFDFDF"/><path fill="#000000" d="m9.853 3.372.385-.36v1.35h1.52l-.35.33.35.373h-1.546l.026 1.393-.383-.338-.388.338V5.065h-1.49l.36-.373-.389-.33h1.519v-1.35z"/><path fill="#DFDFDF" d="m9.855 3.404.37-.356v1.335h1.49l-.333.31.333.358h-1.52l.03 1.377-.37-.33-.37.33V5.05H8.006l.352-.359-.368-.31h1.493V3.049z"/><path fill="#000000" d="m10.817 3.771.526.018-.954.955 1.075 1.075-.481-.015-.016.511-1.093-1.093-.967 1.003-.032-.51-.513-.035.985-.985-1.054-1.054.518-.009-.042-.508 1.074 1.074.955-.954z"/><path fill="#DFDFDF" d="m10.795 3.795.514.01-.944.944 1.054 1.054-.454-.017-.019.49L9.871 5.2l-.952.995L8.89 5.7l-.495-.03.974-.973-1.044-1.044.502-.005-.042-.479 1.056 1.056.944-.944z"/><path d="M9.14 23.353h.64l.068.11.096-.11h.615l.339.347h-.758l.852.76h.758l.873.794v.639l.702.656.085-.067v-.5l.408.358v.383l-.152.125.152.143v.4l-.408.381v-.67l-.858.743v.7l-.802.814h-.758l-.79.714h.644l-.35.44h-.552l-.096-.169-.068.168h-.564l-.432-.439h.714l-.714-.714h-.782l-.871-.814v-.7l-.743-.676v.603l-.497-.38v-.4l.165-.144-.165-.125v-.383l.497-.358v.567l.743-.567v-.728l.871-.795h.782l.714-.759h-.714l.357-.347Z" fill="#000000"/><path d="M9.156 23.387h.63l.063.109.089-.109h.57l.308.287h-.748l.92.805h.755l.84.785v.638l.743.701.121-.095v-.464l.331.29v.38l-.175.123.175.176v.36l-.331.3v-.64l-.929.788v.69l-.775.804h-.755l-.868.788h.665l-.304.375h-.497l-.135-.227-.11.227h-.52l-.357-.375h.69l-.772-.788h-.762l-.863-.803v-.691l-.799-.734v.633l-.414-.347v-.395l.153-.141-.153-.124v-.378l.414-.291v.56l.799-.622v-.718l.863-.785h.792l.742-.805h-.69l.294-.287Z" fill="#DFDFDF"/><path d="m12.185 24.881-.028 4-.146.156H7.713l-.147-.157v-3.999h4.62Zm-.427.389h-3.81v3.388h3.81V25.27Z" fill="#000000"/><path d="m12.151 24.901-.017 3.988-.124.13H7.722l-.137-.145V24.9h4.566Zm-.393.369h-3.81v3.388h3.81V25.27Z" fill="#DFDFDF"/><path d="m12.938 26.954-3.016 2.944L6.8 26.83l2.993-2.86 3.144 2.984Zm-3.152-2.498-2.511 2.383 2.647 2.65 2.48-2.391-2.616-2.642Z" fill="#000000"/><path d="m12.894 26.953-2.966 2.903-3.065-3.025 2.934-2.813 3.097 2.935Zm-3.108-2.497-2.511 2.383 2.647 2.65 2.48-2.391-2.616-2.642Z" fill="#DFDFDF"/><path fill="#000000" d="m9.853 25.572.385-.36v1.35h1.52l-.35.33.35.373h-1.546l.026 1.393-.383-.338-.388.338v-1.393h-1.49l.36-.373-.389-.33h1.519v-1.35z"/><path fill="#DFDFDF" d="m9.855 25.604.37-.356v1.335h1.49l-.333.31.333.358h-1.52l.03 1.377-.37-.33-.37.33V27.25H8.006l.352-.359-.368-.31h1.493v-1.334z"/><path fill="#000000" d="m10.817 25.971.526.018-.954.955 1.075 1.075-.481-.015-.016.511-1.093-1.093-.967 1.003-.032-.51-.513-.035.985-.985-1.054-1.054.518-.009-.042-.508 1.074 1.074.955-.954z"/><path fill="#DFDFDF" d="m10.795 25.995.514.01-.944.944 1.054 1.054-.454-.017-.019.49L9.871 27.4l-.952.995-.029-.495-.495-.03.974-.973-1.044-1.044.502-.005-.042-.479 1.056 1.056.944-.944z"/><path d="M4.14 41.753h.64l.068.11.096-.11h.615l.339.347H5.14l.852.76h.758l.873.794v.639l.702.656.085-.067v-.5l.408.358v.383l-.152.125.152.143v.4l-.408.381v-.67l-.858.743v.7H2.13v-.7l-.743-.676v.603l-.497-.38v-.4l.165-.144-.165-.125v-.383l.497-.358v.567l.743-.567v-.728l.871-.795h.782l.714-.759h-.714l.357-.347Z" fill="#000000"/><path d="M4.156 41.787h.63l.063.109.089-.109h.57l.308.287h-.748l.92.805h.755l.84.785v.638l.743.701.121-.095v-.464l.331.29v.38l-.175.123.175.176v.36l-.331.3v-.64l-.929.788v.69l-.775.804H3.018l-.863-.803v-.691l-.799-.734v.633l-.414-.347v-.395l.153-.141-.153-.124v-.378l.414-.291v.56l.799-.622v-.718l.863-.785h.792l.742-.805h-.69l.294-.287Z" fill="#DFDFDF"/><path d="m7.185 43.281-.028 4-.146.156H2.713l-.147-.157v-3.999h4.62Zm-.427.389h-3.81v3.388h3.81V43.67Z" fill="#000000"/><path d="m7.151 43.301-.017 3.988-.124.13H2.722l-.137-.145V43.3h4.566Zm-.393.369h-3.81v3.388h3.81V43.67Z" fill="#DFDFDF"/><path d="m7.938 45.354-3.016 2.944L1.8 45.23l2.993-2.86 3.144 2.984Zm-3.152-2.498-2.511 2.383 2.647 2.65 2.48-2.391-2.616-2.642Z" fill="#000000"/><path d="m7.894 45.353-2.966 2.903-3.065-3.025 2.934-2.813 3.097 2.935Zm-3.108-2.497-2.511 2.383 2.647 2.65 2.48-2.391-2.616-2.642Z" fill="#DFDFDF"/><path fill="#000000" d="m4.853 43.972.385-.36v1.35h1.52l-.35.33.35.373H5.212l.026 1.393-.383-.338-.388.338v-1.393h-1.49l.36-.373-.389-.33h1.519v-1.35z"/><path fill="#DFDFDF" d="m4.855 44.004.37-.356v1.335h1.49l-.333.31.333.358h-1.52l.03 1.377-.37-.33-.37.33V45.65H3.006l.352-.359-.368-.31h1.493v-1.334z"/><path fill="#000000" d="m5.817 44.371.526.018-.954.955 1.075 1.075-.481-.015-.016.511-1.093-1.093-.967 1.003-.032-.51-.513-.035.985-.985-1.054-1.054.518-.009-.042-.508 1.074 1.074.955-.954z"/><path fill="#DFDFDF" d="m5.795 44.395.514.01-.944.944 1.054 1.054-.454-.017-.019.49L4.871 45.8l-.952.995-.029-.495-.495-.03.974-.973-1.044-1.044.502-.005-.042-.479 1.056 1.056.944-.944z"/><path d="M4.14 34.353h.64l.068.11.096-.11h.615l.339.347H5.14l.852.76h.758l.873.794v.639l.702.656.085-.067v-.5l.408.358v.383l-.152.125.152.143v.4l-.408.381v-.67l-.858.743v.7l-.802.814h-.758l-.79.714h.644l-.35.44h-.552l-.096-.169-.068.168h-.564l-.432-.439h.714l-.714-.714h-.782l-.871-.814v-.7l-.743-.676v.603l-.497-.38v-.4l.165-.144-.165-.125v-.383l.497-.358v.567l.743-.567v-.728l.871-.795h.782l.714-.759h-.714l.357-.347Z" fill="#000000"/><path d="M4.156 34.387h.63l.063.109.089-.109h.57l.308.287h-.748l.92.805h.755l.84.785v.638l.743.701.121-.095v-.464l.331.29v.38l-.175.123.175.176v.36l-.331.3v-.64l-.929.788v.69l-.775.804h-.755l-.868.788h.665l-.304.375h-.497l-.135-.227-.11.227h-.52l-.357-.375h.69l-.772-.788h-.762l-.863-.803v-.691l-.799-.734v.633l-.414-.347v-.395l.153-.141-.153-.124v-.378l.414-.291v.56l.799-.622v-.718l.863-.785h.792l.742-.805h-.69l.294-.287Z" fill="#DFDFDF"/><path d="m7.185 35.881-.028 4-.146.156H2.713l-.147-.157v-3.999h4.62Zm-.427.389h-3.81v3.388h3.81V36.27Z" fill="#000000"/><path d="m7.151 35.901-.017 3.988-.124.13H2.722l-.137-.145V35.9h4.566Zm-.393.369h-3.81v3.388h3.81V36.27Z" fill="#DFDFDF"/><path d="m7.938 37.954-3.016 2.944L1.8 37.83l2.993-2.86 3.144 2.984Zm-3.152-2.498-2.511 2.383 2.647 2.65 2.48-2.391-2.616-2.642Z" fill="#000000"/><path d="m7.894 37.953-2.966 2.903-3.065-3.025 2.934-2.813 3.097 2.935Zm-3.108-2.497-2.511 2.383 2.647 2.65 2.48-2.391-2.616-2.642Z" fill="#DFDFDF"/><path fill="#000000" d="m4.853 36.572.385-.36v1.35h1.52l-.35.33.35.373H5.212l.026 1.393-.383-.338-.388.338v-1.393h-1.49l.36-.373-.389-.33h1.519v-1.35z"/><path fill="#DFDFDF" d="m4.855 36.604.37-.356v1.335h1.49l-.333.31.333.358h-1.52l.03 1.377-.37-.33-.37.33V38.25H3.006l.352-.359-.368-.31h1.493v-1.334z"/><path fill="#000000" d="m5.817 36.971.526.018-.954.955 1.075 1.075-.481-.015-.016.511-1.093-1.093-.967 1.003-.032-.51-.513-.035.985-.985-1.054-1.054.518-.009-.042-.508 1.074 1.074.955-.954z"/><path fill="#DFDFDF" d="m5.795 36.995.514.01-.944.944 1.054 1.054-.454-.017-.019.49L4.871 38.4l-.952.995-.029-.495-.495-.03.974-.973-1.044-1.044.502-.005-.042-.479 1.056 1.056.944-.944z"/><path d="M4.14 26.953h.64l.068.11.096-.11h.615l.339.347H5.14l.852.76h.758l.873.794v.639l.702.656.085-.067v-.5l.408.358v.383l-.152.125.152.143v.4l-.408.381v-.67l-.858.743v.7l-.802.814h-.758l-.79.714h.644l-.35.44h-.552l-.096-.169-.068.168h-.564l-.432-.439h.714l-.714-.714h-.782l-.871-.814v-.7l-.743-.676v.603l-.497-.38v-.4l.165-.144-.165-.125v-.383l.497-.358v.567l.743-.567v-.728l.871-.795h.782l.714-.759h-.714l.357-.347Z" fill="#000000"/><path d="M4.156 26.987h.63l.063.109.089-.109h.57l.308.287h-.748l.92.805h.755l.84.785v.638l.743.701.121-.095v-.464l.331.29v.38l-.175.123.175.176v.36l-.331.3v-.64l-.929.788v.69l-.775.804h-.755l-.868.788h.665l-.304.375h-.497l-.135-.227-.11.227h-.52l-.357-.375h.69l-.772-.788h-.762l-.863-.803v-.691l-.799-.734v.633l-.414-.347v-.395l.153-.141-.153-.124v-.378l.414-.291v.56l.799-.622v-.718l.863-.785h.792l.742-.805h-.69l.294-.287Z" fill="#DFDFDF"/><path d="m7.185 28.481-.028 4-.146.156H2.713l-.147-.157v-3.999h4.62Zm-.427.389h-3.81v3.388h3.81V28.87Z" fill="#000000"/><path d="m7.151 28.501-.017 3.988-.124.13H2.722l-.137-.145V28.5h4.566Zm-.393.369h-3.81v3.388h3.81V28.87Z" fill="#DFDFDF"/><path d="m7.938 30.554-3.016 2.944L1.8 30.43l2.993-2.86 3.144 2.984Zm-3.152-2.498-2.511 2.383 2.647 2.65 2.48-2.391-2.616-2.642Z" fill="#000000"/><path d="m7.894 30.553-2.966 2.903-3.065-3.025 2.934-2.813 3.097 2.935Zm-3.108-2.497-2.511 2.383 2.647 2.65 2.48-2.391-2.616-2.642Z" fill="#DFDFDF"/><path fill="#000000" d="m4.853 29.172.385-.36v1.35h1.52l-.35.33.35.373H5.212l.026 1.393-.383-.338-.388.338v-1.393h-1.49l.36-.373-.389-.33h1.519v-1.35z"/><path fill="#DFDFDF" d="m4.855 29.204.37-.356v1.335h1.49l-.333.31.333.358h-1.52l.03 1.377-.37-.33-.37.33V30.85H3.006l.352-.359-.368-.31h1.493v-1.334z"/><path fill="#000000" d="m5.817 29.571.526.018-.954.955 1.075 1.075-.481-.015-.016.511-1.093-1.093-.967 1.003-.032-.51-.513-.035.985-.985-1.054-1.054.518-.009-.042-.508 1.074 1.074.955-.954z"/><path fill="#DFDFDF" d="m5.795 29.595.514.01-.944.944 1.054 1.054-.454-.017-.019.49L4.871 31l-.952.995-.029-.495-.495-.03.974-.973-1.044-1.044.502-.005-.042-.479 1.056 1.056.944-.944z"/><path d="M4.14 12.153h.64l.068.11.096-.11h.615l.339.347H5.14l.852.76h.758l.873.794v.639l.702.656.085-.067v-.5l.408.358v.383l-.152.125.152.143v.4l-.408.381v-.67l-.858.743v.7l-.802.814h-.758l-.79.714h.644l-.35.44h-.552l-.096-.169-.068.168h-.564l-.432-.439h.714l-.714-.714h-.782l-.871-.814v-.7l-.743-.676v.603l-.497-.38v-.4l.165-.144-.165-.125v-.383l.497-.358v.567l.743-.567v-.728l.871-.795h.782l.714-.759h-.714l.357-.347Z" fill="#000000"/><path d="M4.156 12.187h.63l.063.109.089-.109h.57l.308.287h-.748l.92.805h.755l.84.785v.638l.743.701.121-.095v-.464l.331.29v.38l-.175.123.175.176v.36l-.331.3v-.64l-.929.788v.69l-.775.804h-.755l-.868.788h.665l-.304.375h-.497l-.135-.227-.11.227h-.52l-.357-.375h.69l-.772-.788h-.762l-.863-.803v-.691l-.799-.734v.633l-.414-.347v-.395l.153-.141-.153-.124v-.378l.414-.291v.56l.799-.622v-.718l.863-.785h.792l.742-.805h-.69l.294-.287Z" fill="#DFDFDF"/><path d="m7.185 13.681-.028 4-.146.156H2.713l-.147-.157v-3.999h4.62Zm-.427.389h-3.81v3.388h3.81V14.07Z" fill="#000000"/><path d="m7.151 13.701-.017 3.988-.124.13H2.722l-.137-.145V13.7h4.566Zm-.393.369h-3.81v3.388h3.81V14.07Z" fill="#DFDFDF"/><path d="m7.938 15.754-3.016 2.944L1.8 15.63l2.993-2.86 3.144 2.984Zm-3.152-2.498-2.511 2.383 2.647 2.65 2.48-2.391-2.616-2.642Z" fill="#000000"/><path d="m7.894 15.753-2.966 2.903-3.065-3.025 2.934-2.813 3.097 2.935Zm-3.108-2.497-2.511 2.383 2.647 2.65 2.48-2.391-2.616-2.642Z" fill="#DFDFDF"/><path fill="#000000" d="m4.853 14.372.385-.36v1.35h1.52l-.35.33.35.373H5.212l.026 1.393-.383-.338-.388.338v-1.393h-1.49l.36-.373-.389-.33h1.519v-1.35z"/><path fill="#DFDFDF" d="m4.855 14.404.37-.356v1.335h1.49l-.333.31.333.358h-1.52l.03 1.377-.37-.33-.37.33V16.05H3.006l.352-.359-.368-.31h1.493v-1.334z"/><path fill="#000000" d="m5.817 14.771.526.018-.954.955 1.075 1.075-.481-.015-.016.511-1.093-1.093-.967 1.003-.032-.51-.513-.035.985-.985-1.054-1.054.518-.009-.042-.508 1.074 1.074.955-.954z"/><path fill="#DFDFDF" d="m5.795 14.795.514.01-.944.944 1.054 1.054-.454-.017-.019.49L4.871 16.2l-.952.995-.029-.495-.495-.03.974-.973-1.044-1.044.502-.005-.042-.479 1.056 1.056.944-.944z"/><path d="M4.14 4.753h.64l.068.11.096-.11h.615l.339.347H5.14l.852.76h.758l.873.794v.639l.702.656.085-.067v-.5l.408.358v.383l-.152.125.152.143v.4l-.408.381v-.67l-.858.743v.7l-.802.814h-.758l-.79.714h.644l-.35.44h-.552l-.096-.169-.068.168h-.564l-.432-.439h.714l-.714-.714h-.782l-.871-.814v-.7l-.743-.676v.603l-.497-.38v-.4l.165-.144-.165-.125V7.74l.497-.358v.567l.743-.567v-.728l.871-.795h.782l.714-.759h-.714l.357-.347Z" fill="#000000"/><path d="M4.156 4.787h.63l.063.109.089-.109h.57l.308.287h-.748l.92.805h.755l.84.785v.638l.743.701.121-.095v-.464l.331.29v.38l-.175.123.175.176v.36l-.331.3v-.64l-.929.788v.69l-.775.804h-.755l-.868.788h.665l-.304.375h-.497l-.135-.227-.11.227h-.52l-.357-.375h.69l-.772-.788h-.762l-.863-.803V9.22l-.799-.734v.633l-.414-.347v-.395l.153-.141-.153-.124v-.378l.414-.291v.56l.799-.622v-.718l.863-.785h.792l.742-.805h-.69l.294-.287Z" fill="#DFDFDF"/><path d="m7.185 6.281-.028 4-.146.156H2.713l-.147-.157V6.281h4.62Zm-.427.389h-3.81v3.388h3.81V6.67Z" fill="#000000"/><path d="m7.151 6.301-.017 3.988-.124.13H2.722l-.137-.145V6.3h4.566Zm-.393.369h-3.81v3.388h3.81V6.67Z" fill="#DFDFDF"/><path d="m7.938 8.354-3.016 2.944L1.8 8.23l2.993-2.86 3.144 2.984ZM4.786 5.856 2.275 8.239l2.647 2.65 2.48-2.391-2.616-2.642Z" fill="#000000"/><path d="m7.894 8.353-2.966 2.903-3.065-3.025 2.934-2.813 3.097 2.935ZM4.786 5.856 2.275 8.239l2.647 2.65 2.48-2.391-2.616-2.642Z" fill="#DFDFDF"/><path fill="#000000" d="m4.853 6.972.385-.36v1.35h1.52l-.35.33.35.373H5.212l.026 1.393-.383-.338-.388.338V8.665h-1.49l.36-.373-.389-.33h1.519v-1.35z"/><path fill="#DFDFDF" d="m4.855 7.004.37-.356v1.335h1.49l-.333.31.333.358h-1.52l.03 1.377-.37-.33-.37.33V8.65H3.006l.352-.359-.368-.31h1.493V6.649z"/><path fill="#000000" d="m5.817 7.371.526.018-.954.955 1.075 1.075-.481-.015-.016.511-1.093-1.093-.967 1.003-.032-.51-.513-.035.985-.985-1.054-1.054.518-.009-.042-.508 1.074 1.074.955-.954z"/><path fill="#DFDFDF" d="m5.795 7.395.514.01-.944.944 1.054 1.054-.454-.017-.019.49L4.871 8.8l-.952.995L3.89 9.3l-.495-.03.974-.973-1.044-1.044.502-.005-.042-.479 1.056 1.056.944-.944z"/><path fill="#000000" d="M7.623-.746v.639l.702.656.085-.067v-.5l.408.358v.383l-.152.125.152.143v.4l-.408.381v-.67l-.858.743v.7l-.802.814h-.758l-.79.714h.644l-.35.44h-.552l-.096-.169-.068.168h-.564l-.432-.439h.714l-.714-.714h-.782z"/><path fill="#DFDFDF" d="m7.582-.098.744.701.121-.095V.044l.331.29v.38l-.175.123.175.176v.36l-.331.3v-.64l-.929.788v.69l-.775.804h-.755l-.868.788h.665l-.304.375h-.497l-.135-.227-.11.227h-.52l-.357-.375h.69l-.772-.788h-.762l-.863-.803z"/><path d="m7.185-1.119-.028 4-.146.156H2.713l-.147-.157v-3.999h4.62Zm-.427.389h-3.81v3.388h3.81V-.73Z" fill="#000000"/><path d="M7.151-1.099 7.134 2.89l-.124.13H2.722l-.137-.145V-1.1h4.566Zm-.393.369h-3.81v3.388h3.81V-.73Z" fill="#DFDFDF"/><path d="M7.938.954 4.92 3.898 1.801.83l2.993-2.86L7.938.954ZM4.786-1.544 2.275.839l2.647 2.65 2.48-2.391-2.616-2.642Z" fill="#000000"/><path d="M7.894.953 4.928 3.856 1.863.831l2.934-2.813L7.894.953ZM4.786-1.544 2.275.839l2.647 2.65 2.48-2.391-2.616-2.642Z" fill="#DFDFDF"/><path fill="#000000" d="m4.853-.428.385-.36v1.35h1.52l-.35.33.35.373H5.212l.026 1.393-.383-.338-.388.338V1.265h-1.49l.36-.373-.389-.33h1.519v-1.35z"/><path fill="#DFDFDF" d="m4.855-.396.37-.356V.583h1.49l-.333.31.333.358h-1.52l.03 1.377-.37-.33-.37.33V1.25H3.006L3.36.892l-.368-.31h1.493V-.751z"/><path fill="#000000" d="m5.817-.029.526.018-.954.955 1.075 1.075-.481-.015-.016.511-1.093-1.093-.967 1.003-.032-.51-.513-.035.985-.985L3.293-.159l.518-.009-.042-.508L4.843.398l.955-.954z"/><path fill="#DFDFDF" d="m5.795-.005.514.01-.944.944 1.054 1.054-.454-.017-.019.49L4.871 1.4l-.952.995L3.89 1.9l-.495-.03.974-.973L3.325-.147l.502-.005-.042-.479L4.841.425l.944-.944z"/><path d="M4.14 19.553h.64l.068.11.096-.11h.615l.339.347H5.14l.852.76h.758l.873.794v.639l.702.656.085-.067v-.5l.408.358v.383l-.152.125.152.143v.4l-.408.381v-.67l-.858.743v.7l-.802.814h-.758l-.79.714h.644l-.35.44h-.552l-.096-.169-.068.168h-.564l-.432-.439h.714l-.714-.714h-.782l-.871-.814v-.7l-.743-.676v.603l-.497-.38v-.4l.165-.144-.165-.125v-.383l.497-.358v.567l.743-.567v-.728l.871-.795h.782l.714-.759h-.714l.357-.347Z" fill="#000000"/><path d="M4.156 19.587h.63l.063.109.089-.109h.57l.308.287h-.748l.92.805h.755l.84.785v.638l.743.701.121-.095v-.464l.331.29v.38l-.175.123.175.176v.36l-.331.3v-.64l-.929.788v.69l-.775.804h-.755l-.868.788h.665l-.304.375h-.497l-.135-.227-.11.227h-.52l-.357-.375h.69l-.772-.788h-.762l-.863-.803v-.691l-.799-.734v.633l-.414-.347v-.395l.153-.141-.153-.124v-.378l.414-.291v.56l.799-.622v-.718l.863-.785h.792l.742-.805h-.69l.294-.287Z" fill="#DFDFDF"/><path d="m7.185 21.081-.028 4-.146.156H2.713l-.147-.157v-3.999h4.62Zm-.427.389h-3.81v3.388h3.81V21.47Z" fill="#000000"/><path d="m7.151 21.101-.017 3.988-.124.13H2.722l-.137-.145V21.1h4.566Zm-.393.369h-3.81v3.388h3.81V21.47Z" fill="#DFDFDF"/><path d="m7.938 23.154-3.016 2.944L1.8 23.03l2.993-2.86 3.144 2.984Zm-3.152-2.498-2.511 2.383 2.647 2.65 2.48-2.391-2.616-2.642Z" fill="#000000"/><path d="m7.894 23.153-2.966 2.903-3.065-3.025 2.934-2.813 3.097 2.935Zm-3.108-2.497-2.511 2.383 2.647 2.65 2.48-2.391-2.616-2.642Z" fill="#DFDFDF"/><path fill="#000000" d="m4.853 21.772.385-.36v1.35h1.52l-.35.33.35.373H5.212l.026 1.393-.383-.338-.388.338v-1.393h-1.49l.36-.373-.389-.33h1.519v-1.35z"/><path fill="#DFDFDF" d="m4.855 21.804.37-.356v1.335h1.49l-.333.31.333.358h-1.52l.03 1.377-.37-.33-.37.33V23.45H3.006l.352-.359-.368-.31h1.493v-1.334z"/><path fill="#000000" d="m5.817 22.171.526.018-.954.955 1.075 1.075-.481-.015-.016.511-1.093-1.093-.967 1.003-.032-.51-.513-.035.985-.985-1.054-1.054.518-.009-.042-.508 1.074 1.074.955-.954z"/><path fill="#DFDFDF" d="m5.795 22.195.514.01-.944.944 1.054 1.054-.454-.017-.019.49L4.871 23.6l-.952.995-.029-.495-.495-.03.974-.973-1.044-1.044.502-.005-.042-.479 1.056 1.056.944-.944z"/><path d="m.559 38.153.339.347H.14l.852.76h.758l.873.794v.639l.702.656.085-.067v-.5l.408.358v.383l-.152.125.152.143v.4l-.408.381v-.67l-.858.743v.7l-.802.814H.992l-.79.714h.644l-.35.44.063-7.16Z" fill="#000000"/><path d="m.509 38.187.307.287H.068l.92.805h.755l.84.785v.638l.743.701.121-.095v-.464l.331.29v.38l-.175.123.175.176v.36l-.331.3v-.64l-.929.788v.69l-.775.804H.988l-.868.788h.665l-.304.375.028-7.09Z" fill="#DFDFDF"/><path d="m2.185 39.681-.028 4-.146.156h-4.298l-.147-.157v-3.999h4.62Zm-.427.389h-3.81v3.388h3.81V40.07Z" fill="#000000"/><path d="m2.151 39.701-.017 3.988-.124.13h-4.288l-.137-.145V39.7h4.566Zm-.393.369h-3.81v3.388h3.81V40.07Z" fill="#DFDFDF"/><path d="m2.938 41.754-3.016 2.944L-3.2 41.63l2.993-2.86 3.144 2.984Zm-3.152-2.498-2.511 2.383 2.647 2.65 2.48-2.391-2.616-2.642Z" fill="#000000"/><path d="m2.894 41.753-2.966 2.903-3.065-3.025 2.934-2.813 3.097 2.935Zm-3.108-2.497-2.511 2.383 2.647 2.65 2.48-2.391-2.616-2.642Z" fill="#DFDFDF"/><path fill="#000000" d="m-.147 40.372.385-.36v1.35h1.52l-.35.33.35.373H.212l.026 1.393-.383-.338-.388.338v-1.393h-1.49l.36-.373-.389-.33h1.519v-1.35z"/><path fill="#DFDFDF" d="m-.145 40.404.37-.356v1.335h1.49l-.333.31.333.358H.195l.03 1.377-.37-.33-.37.33V42.05h-1.478l.352-.359-.368-.31h1.493v-1.334z"/><path fill="#000000" d="m.817 40.771.526.018-.954.955 1.075 1.075-.481-.015-.016.511-1.093-1.093-.967 1.003-.032-.51-.513-.035.985-.985-1.054-1.054.518-.009-.042-.508 1.074 1.074.955-.954z"/><path fill="#DFDFDF" d="m.795 40.795.514.01-.944.944 1.054 1.054-.454-.017-.019.49L-.129 42.2l-.952.995-.029-.495-.495-.03.974-.973-1.044-1.044.502-.005-.042-.479 1.056 1.056.944-.944z"/><path d="m.559 30.753.339.347H.14l.852.76h.758l.873.794v.639l.702.656.085-.067v-.5l.408.358v.383l-.152.125.152.143v.4l-.408.381v-.67l-.858.743v.7l-.802.814H.992l-.79.714h.644l-.35.44.063-7.16Z" fill="#000000"/><path d="m.509 30.787.307.287H.068l.92.805h.755l.84.785v.638l.743.701.121-.095v-.464l.331.29v.38l-.175.123.175.176v.36l-.331.3v-.64l-.929.788v.69l-.775.804H.988l-.868.788h.665l-.304.375.028-7.09Z" fill="#DFDFDF"/><path d="m2.185 32.281-.028 4-.146.156h-4.298l-.147-.157v-3.999h4.62Zm-.427.389h-3.81v3.388h3.81V32.67Z" fill="#000000"/><path d="m2.151 32.301-.017 3.988-.124.13h-4.288l-.137-.145V32.3h4.566Zm-.393.369h-3.81v3.388h3.81V32.67Z" fill="#DFDFDF"/><path d="m2.938 34.354-3.016 2.944L-3.2 34.23l2.993-2.86 3.144 2.984Zm-3.152-2.498-2.511 2.383 2.647 2.65 2.48-2.391-2.616-2.642Z" fill="#000000"/><path d="m2.894 34.353-2.966 2.903-3.065-3.025 2.934-2.813 3.097 2.935Zm-3.108-2.497-2.511 2.383 2.647 2.65 2.48-2.391-2.616-2.642Z" fill="#DFDFDF"/><path fill="#000000" d="m-.147 32.972.385-.36v1.35h1.52l-.35.33.35.373H.212l.026 1.393-.383-.338-.388.338v-1.393h-1.49l.36-.373-.389-.33h1.519v-1.35z"/><path fill="#DFDFDF" d="m-.145 33.004.37-.356v1.335h1.49l-.333.31.333.358H.195l.03 1.377-.37-.33-.37.33V34.65h-1.478l.352-.359-.368-.31h1.493v-1.334z"/><path fill="#000000" d="m.817 33.371.526.018-.954.955 1.075 1.075-.481-.015-.016.511-1.093-1.093-.967 1.003-.032-.51-.513-.035.985-.985-1.054-1.054.518-.009-.042-.508 1.074 1.074.955-.954z"/><path fill="#DFDFDF" d="m.795 33.395.514.01-.944.944 1.054 1.054-.454-.017-.019.49L-.129 34.8l-.952.995-.029-.495-.495-.03.974-.973-1.044-1.044.502-.005-.042-.479 1.056 1.056.944-.944z"/><path d="M-.056 15.953h.615l.339.347H.14l.852.76h.758l.873.794v.639l.702.656.085-.067v-.5l.408.358v.383l-.152.125.152.143v.4l-.408.381v-.67l-.858.743v.7l-.802.814H.992l-.79.714h.644l-.35.44h-.552v-7.16Z" fill="#000000"/><path d="m-.151 16.096.089-.109h.57l.308.287H.068l.92.805h.755l.84.785v.638l.743.701.121-.095v-.464l.331.29v.38l-.175.123.175.176v.36l-.331.3v-.64l-.929.788v.69l-.775.804H.988l-.868.788h.665l-.304.375h-.497l-.135-.227v-6.755Z" fill="#DFDFDF"/><path d="m2.185 17.481-.028 4-.146.156h-4.298l-.147-.157v-3.999h4.62Zm-.427.389h-3.81v3.388h3.81V17.87Z" fill="#000000"/><path d="m2.151 17.501-.017 3.988-.124.13h-4.288l-.137-.145V17.5h4.566Zm-.393.369h-3.81v3.388h3.81V17.87Z" fill="#DFDFDF"/><path d="m2.938 19.554-3.016 2.944L-3.2 19.43l2.993-2.86 3.144 2.984Zm-3.152-2.498-2.511 2.383 2.647 2.65 2.48-2.391-2.616-2.642Z" fill="#000000"/><path d="m2.894 19.553-2.966 2.903-3.065-3.025 2.934-2.813 3.097 2.935Zm-3.108-2.497-2.511 2.383 2.647 2.65 2.48-2.391-2.616-2.642Z" fill="#DFDFDF"/><path fill="#000000" d="m-.147 18.172.385-.36v1.35h1.52l-.35.33.35.373H.212l.026 1.393-.383-.338-.388.338v-1.393h-1.49l.36-.373-.389-.33h1.519v-1.35z"/><path fill="#DFDFDF" d="m-.145 18.204.37-.356v1.335h1.49l-.333.31.333.358H.195l.03 1.377-.37-.33-.37.33V19.85h-1.478l.352-.359-.368-.31h1.493v-1.334z"/><path fill="#000000" d="m.817 18.571.526.018-.954.955 1.075 1.075-.481-.015-.016.511-1.093-1.093-.967 1.003-.032-.51-.513-.035.985-.985-1.054-1.054.518-.009-.042-.508 1.074 1.074.955-.954z"/><path fill="#DFDFDF" d="m.795 18.595.514.01-.944.944 1.054 1.054-.454-.017-.019.49L-.129 20l-.952.995-.029-.495-.495-.03.974-.973-1.044-1.044.502-.005-.042-.479 1.056 1.056.944-.944z"/><path d="M-.056 8.553h.615l.339.347H.14l.852.76h.758l.873.794v.639l.702.656.085-.067v-.5l.408.358v.383l-.152.125.152.143v.4l-.408.381v-.67l-.858.743v.7l-.802.814H.992l-.79.714h.644l-.35.44h-.552v-7.16Z" fill="#000000"/><path d="m-.151 8.696.089-.109h.57l.308.287H.068l.92.805h.755l.84.785v.638l.743.701.121-.095v-.464l.331.29v.38l-.175.123.175.176v.36l-.331.3v-.64l-.929.788v.69l-.775.804H.988l-.868.788h.665l-.304.375h-.497l-.135-.227V8.696Z" fill="#DFDFDF"/><path d="m2.185 10.081-.028 4-.146.156h-4.298l-.147-.157v-3.999h4.62Zm-.427.389h-3.81v3.388h3.81V10.47Z" fill="#000000"/><path d="m2.151 10.101-.017 3.988-.124.13h-4.288l-.137-.145V10.1h4.566Zm-.393.369h-3.81v3.388h3.81V10.47Z" fill="#DFDFDF"/><path d="m2.938 12.154-3.016 2.944L-3.2 12.03l2.993-2.86 3.144 2.984ZM-.214 9.656l-2.511 2.383 2.647 2.65 2.48-2.391-2.616-2.642Z" fill="#000000"/><path d="m2.894 12.153-2.966 2.903-3.065-3.025 2.934-2.813 3.097 2.935ZM-.214 9.656l-2.511 2.383 2.647 2.65 2.48-2.391-2.616-2.642Z" fill="#DFDFDF"/><path fill="#000000" d="m-.147 10.772.385-.36v1.35h1.52l-.35.33.35.373H.212l.026 1.393-.383-.338-.388.338v-1.393h-1.49l.36-.373-.389-.33h1.519v-1.35z"/><path fill="#DFDFDF" d="m-.145 10.804.37-.356v1.335h1.49l-.333.31.333.358H.195l.03 1.377-.37-.33-.37.33V12.45h-1.478l.352-.359-.368-.31h1.493v-1.334z"/><path fill="#000000" d="m.817 11.171.526.018-.954.955 1.075 1.075-.481-.015-.016.511-1.093-1.093-.967 1.003-.032-.51-.513-.035.985-.985-1.054-1.054.518-.009-.042-.508 1.074 1.074.955-.954z"/><path fill="#DFDFDF" d="m.795 11.195.514.01-.944.944 1.054 1.054-.454-.017-.019.49L-.129 12.6l-.952.995-.029-.495-.495-.03.974-.973-1.044-1.044.502-.005-.042-.479 1.056 1.056.944-.944z"/><path d="M-.86 1.153h.64l.068.11.096-.11h.615l.339.347H.14l.852.76h.758l.873.794v.639l.702.656.085-.067v-.5l.408.358v.383l-.152.125.152.143v.4l-.408.381v-.67l-.858.743v.7l-.802.814H.992l-.79.714h.644l-.35.44h-.552l-.096-.169-.068.168h-.564l-.432-.439h.714l-.714-.714h-.782l-.871-.814v-.7l-.743-.676v.603l-.497-.38v-.4l.165-.144-.165-.125V4.14l.497-.358v.567l.743-.567v-.728l.871-.795h.782l.714-.759h-.714l.357-.347Z" fill="#000000"/><path d="m.509 1.187.307.287H.068l.92.805h.755l.84.785v.638l.743.701.121-.095v-.464l.331.29v.38l-.175.123.175.176v.36l-.331.3v-.64l-.929.788v.69l-.775.804H.988l-.868.788h.665l-.304.375h-.497l.525-7.09Z" fill="#DFDFDF"/><path d="m2.185 2.681-.028 4-.146.156h-4.298l-.147-.157V2.681h4.62Zm-.427.389h-3.81v3.388h3.81V3.07Z" fill="#000000"/><path d="M2.151 2.701 2.134 6.69l-.124.13h-4.288l-.137-.145V2.7h4.566Zm-.393.369h-3.81v3.388h3.81V3.07Z" fill="#DFDFDF"/><path d="M2.938 4.754-.078 7.698-3.2 4.63l2.993-2.86 3.144 2.984ZM-.214 2.256l-2.511 2.383 2.647 2.65 2.48-2.391-2.616-2.642Z" fill="#000000"/><path d="M2.894 4.753-.072 7.656l-3.065-3.025 2.934-2.813 3.097 2.935ZM-.214 2.256l-2.511 2.383 2.647 2.65 2.48-2.391-2.616-2.642Z" fill="#DFDFDF"/><path fill="#000000" d="m.817 3.771.526.018-.954.955 1.075 1.075-.481-.015-.016.511-1.093-1.093-.967 1.003-.032-.51-.513-.035.985-.985-1.054-1.054.518-.009-.042-.508 1.074 1.074.955-.954z"/><path fill="#DFDFDF" d="m.795 3.795.514.01-.944.944 1.054 1.054-.454-.017-.019.49L-.129 5.2l-.952.995-.029-.495-.495-.03.974-.973-1.044-1.044.502-.005-.042-.479 1.056 1.056.944-.944z"/><path d="m.559 23.353.339.347H.14l.852.76h.758l.873.794v.639l.702.656.085-.067v-.5l.408.358v.383l-.152.125.152.143v.4l-.408.381v-.67l-.858.743v.7l-.802.814H.992l-.79.714h.644l-.35.44.063-7.16Z" fill="#000000"/><path fill="#DFDFDF" d="m.509 23.387.307.287.172.805h.755l.84.785v.638l.743.701.121-.095v-.464l.331.29v.38l-.175.123.175.176v.36l-.331.3v-.64l-.929.788v.69l-.775.804H.988l-.868.788h.665l-.304.375z"/><path d="m2.185 24.881-.028 4-.146.156h-4.298l-.147-.157v-3.999h4.62Zm-.427.389h-3.81v3.388h3.81V25.27Z" fill="#000000"/><path d="m2.151 24.901-.017 3.988-.124.13h-4.288l-.137-.145V24.9h4.566Zm-.393.369h-3.81v3.388h3.81V25.27Z" fill="#DFDFDF"/><path d="m2.938 26.954-3.016 2.944L-3.2 26.83l2.993-2.86 3.144 2.984Zm-3.152-2.498-2.511 2.383 2.647 2.65 2.48-2.391-2.616-2.642Z" fill="#000000"/><path d="m2.894 26.953-2.966 2.903-3.065-3.025 2.934-2.813 3.097 2.935Zm-3.108-2.497-2.511 2.383 2.647 2.65 2.48-2.391-2.616-2.642Z" fill="#DFDFDF"/><path fill="#000000" d="m-.147 25.572.385-.36v1.35h1.52l-.35.33.35.373H.212l.026 1.393-.383-.338-.388.338v-1.393h-1.49l.36-.373-.389-.33h1.519v-1.35z"/><path fill="#DFDFDF" d="m-.145 25.604.37-.356v1.335h1.49l-.333.31.333.358H.195l.03 1.377-.37-.33-.37.33V27.25h-1.478l.352-.359-.368-.31h1.493v-1.334z"/><path d="M24.14 41.753h.64l.068.11.096-.11h.615l.339.347h-.758l.852.76h.758l.873.794v.639l.702.656.085-.067v-.5l.408.358v.383l-.152.125.152.143v.4l-.408.381v-.67l-.858.743v.7l-4.55.814-.871-.814v-.7l-.743-.676v.603l-.497-.38v-.4l.165-.144-.165-.125v-.383l.497-.358v.567l.743-.567v-.728l.871-.795h.782l.714-.759h-.714l.357-.347Z" fill="#000000"/><path d="M24.156 41.787h.63l.063.109.089-.109h.57l.308.287h-.748l.92.805h.755l.84.785v.638l.743.701.121-.095v-.464l.331.29v.38l-.175.123.175.176v.36l-.331.3v-.64l-.929.788v.69l-4.5.804-.863-.803v-.691l-.799-.734v.633l-.414-.347v-.395l.153-.141-.153-.124v-.378l.414-.291v.56l.799-.622v-.718l.863-.785h.792l.742-.805h-.69l.294-.287Z" fill="#DFDFDF"/><path d="m27.185 43.281-.028 4-.146.156h-4.298l-.147-.157v-3.999h4.62Zm-.427.389h-3.81v3.388h3.81V43.67Z" fill="#000000"/><path d="m27.151 43.301-.017 3.988-.124.13h-4.288l-.137-.145V43.3h4.566Zm-.393.369h-3.81v3.388h3.81V43.67Z" fill="#DFDFDF"/><path d="m27.938 45.354-3.016 2.944L21.8 45.23l2.993-2.86 3.144 2.984Zm-3.152-2.498-2.511 2.383 2.647 2.65 2.48-2.391-2.616-2.642Z" fill="#000000"/><path d="m27.894 45.353-2.966 2.903-3.065-3.025 2.934-2.813 3.097 2.935Zm-3.108-2.497-2.511 2.383 2.647 2.65 2.48-2.391-2.616-2.642Z" fill="#DFDFDF"/><path fill="#000000" d="m24.853 43.972.385-.36v1.35h1.52l-.35.33.35.373h-1.546l.026 1.393-.383-.338-.388.338v-1.393h-1.49l.36-.373-.389-.33h1.519v-1.35z"/><path fill="#DFDFDF" d="m24.855 44.004.37-.356v1.335h1.49l-.333.31.333.358h-1.52l.03 1.377-.37-.33-.37.33V45.65h-1.478l.352-.359-.368-.31h1.493v-1.334z"/><path fill="#000000" d="m25.817 44.371.526.018-.954.955 1.075 1.075-.481-.015-.016.511-1.093-1.093-.967 1.003-.032-.51-.513-.035.985-.985-1.054-1.054.518-.009-.042-.508 1.074 1.074.955-.954z"/><path fill="#DFDFDF" d="m25.795 44.395.514.01-.944.944 1.054 1.054-.454-.017-.019.49-1.075-1.076-.952.995-.029-.495-.495-.03.974-.973-1.044-1.044.502-.005-.042-.479 1.056 1.056.944-.944z"/><path d="M24.14 34.353h.64l.068.11.096-.11h.615l.339.347h-.758l.852.76h.758l.873.794v.639l.702.656.085-.067v-.5l.408.358v.383l-.152.125.152.143v.4l-.408.381v-.67l-.858.743v.7l-.802.814h-.758l-.79.714h.644l-.35.44h-.552l-.096-.169-.068.168h-.564l-.432-.439h.714l-.714-.714h-.782l-.871-.814v-.7l-.743-.676v.603l-.497-.38v-.4l.165-.144-.165-.125v-.383l.497-.358v.567l.743-.567v-.728l.871-.795h.782l.714-.759h-.714l.357-.347Z" fill="#000000"/><path d="M24.156 34.387h.63l.063.109.089-.109h.57l.308.287h-.748l.92.805h.755l.84.785v.638l.743.701.121-.095v-.464l.331.29v.38l-.175.123.175.176v.36l-.331.3v-.64l-.929.788v.69l-.775.804h-.755l-.868.788h.665l-.304.375h-.497l-.135-.227-.11.227h-.52l-.357-.375h.69l-.772-.788h-.762l-.863-.803v-.691l-.799-.734v.633l-.414-.347v-.395l.153-.141-.153-.124v-.378l.414-.291v.56l.799-.622v-.718l.863-.785h.792l.742-.805h-.69l.294-.287Z" fill="#DFDFDF"/><path d="m27.185 35.881-.028 4-.146.156h-4.298l-.147-.157v-3.999h4.62Zm-.427.389h-3.81v3.388h3.81V36.27Z" fill="#000000"/><path d="m27.151 35.901-.017 3.988-.124.13h-4.288l-.137-.145V35.9h4.566Zm-.393.369h-3.81v3.388h3.81V36.27Z" fill="#DFDFDF"/><path d="m27.938 37.954-3.016 2.944L21.8 37.83l2.993-2.86 3.144 2.984Zm-3.152-2.498-2.511 2.383 2.647 2.65 2.48-2.391-2.616-2.642Z" fill="#000000"/><path d="m27.894 37.953-2.966 2.903-3.065-3.025 2.934-2.813 3.097 2.935Zm-3.108-2.497-2.511 2.383 2.647 2.65 2.48-2.391-2.616-2.642Z" fill="#DFDFDF"/><path fill="#000000" d="m24.853 36.572.385-.36v1.35h1.52l-.35.33.35.373h-1.546l.026 1.393-.383-.338-.388.338v-1.393h-1.49l.36-.373-.389-.33h1.519v-1.35z"/><path fill="#DFDFDF" d="m24.855 36.604.37-.356v1.335h1.49l-.333.31.333.358h-1.52l.03 1.377-.37-.33-.37.33V38.25h-1.478l.352-.359-.368-.31h1.493v-1.334z"/><path fill="#000000" d="m25.817 36.971.526.018-.954.955 1.075 1.075-.481-.015-.016.511-1.093-1.093-.967 1.003-.032-.51-.513-.035.985-.985-1.054-1.054.518-.009-.042-.508 1.074 1.074.955-.954z"/><path fill="#DFDFDF" d="m25.795 36.995.514.01-.944.944 1.054 1.054-.454-.017-.019.49-1.075-1.076-.952.995-.029-.495-.495-.03.974-.973-1.044-1.044.502-.005-.042-.479 1.056 1.056.944-.944z"/><path d="M24.14 26.953h.64l.068.11.096-.11h.615l.339.347h-.758l.852.76h.758l.873.794v.639l.702.656.085-.067v-.5l.408.358v.383l-.152.125.152.143v.4l-.408.381v-.67l-.858.743v.7l-.802.814h-.758l-.79.714h.644l-.35.44h-.552l-.096-.169-.068.168h-.564l-.432-.439h.714l-.714-.714h-.782l-.871-.814v-.7l-.743-.676v.603l-.497-.38v-.4l.165-.144-.165-.125v-.383l.497-.358v.567l.743-.567v-.728l.871-.795h.782l.714-.759h-.714l.357-.347Z" fill="#000000"/><path d="M24.156 26.987h.63l.063.109.089-.109h.57l.308.287h-.748l.92.805h.755l.84.785v.638l.743.701.121-.095v-.464l.331.29v.38l-.175.123.175.176v.36l-.331.3v-.64l-.929.788v.69l-.775.804h-.755l-.868.788h.665l-.304.375h-.497l-.135-.227-.11.227h-.52l-.357-.375h.69l-.772-.788h-.762l-.863-.803v-.691l-.799-.734v.633l-.414-.347v-.395l.153-.141-.153-.124v-.378l.414-.291v.56l.799-.622v-.718l.863-.785h.792l.742-.805h-.69l.294-.287Z" fill="#DFDFDF"/><path d="m27.185 28.481-.028 4-.146.156h-4.298l-.147-.157v-3.999h4.62Zm-.427.389h-3.81v3.388h3.81V28.87Z" fill="#000000"/><path d="m27.151 28.501-.017 3.988-.124.13h-4.288l-.137-.145V28.5h4.566Zm-.393.369h-3.81v3.388h3.81V28.87Z" fill="#DFDFDF"/><path d="m27.938 30.554-3.016 2.944L21.8 30.43l2.993-2.86 3.144 2.984Zm-3.152-2.498-2.511 2.383 2.647 2.65 2.48-2.391-2.616-2.642Z" fill="#000000"/><path d="m27.894 30.553-2.966 2.903-3.065-3.025 2.934-2.813 3.097 2.935Zm-3.108-2.497-2.511 2.383 2.647 2.65 2.48-2.391-2.616-2.642Z" fill="#DFDFDF"/><path fill="#000000" d="m24.853 29.172.385-.36v1.35h1.52l-.35.33.35.373h-1.546l.026 1.393-.383-.338-.388.338v-1.393h-1.49l.36-.373-.389-.33h1.519v-1.35z"/><path fill="#DFDFDF" d="m24.855 29.204.37-.356v1.335h1.49l-.333.31.333.358h-1.52l.03 1.377-.37-.33-.37.33V30.85h-1.478l.352-.359-.368-.31h1.493v-1.334z"/><path fill="#000000" d="m25.817 29.571.526.018-.954.955 1.075 1.075-.481-.015-.016.511-1.093-1.093-.967 1.003-.032-.51-.513-.035.985-.985-1.054-1.054.518-.009-.042-.508 1.074 1.074.955-.954z"/><path fill="#DFDFDF" d="m25.795 29.595.514.01-.944.944 1.054 1.054-.454-.017-.019.49L24.871 31l-.952.995-.029-.495-.495-.03.974-.973-1.044-1.044.502-.005-.042-.479 1.056 1.056.944-.944z"/><path d="M24.14 12.153h.64l.068.11.096-.11h.615l.339.347h-.758l.852.76h.758l.873.794v.639l.702.656.085-.067v-.5l.408.358v.383l-.152.125.152.143v.4l-.408.381v-.67l-.858.743v.7l-.802.814h-.758l-.79.714h.644l-.35.44h-.552l-.096-.169-.068.168h-.564l-.432-.439h.714l-.714-.714h-.782l-.871-.814v-.7l-.743-.676v.603l-.497-.38v-.4l.165-.144-.165-.125v-.383l.497-.358v.567l.743-.567v-.728l.871-.795h.782l.714-.759h-.714l.357-.347Z" fill="#000000"/><path d="M24.156 12.187h.63l.063.109.089-.109h.57l.308.287h-.748l.92.805h.755l.84.785v.638l.743.701.121-.095v-.464l.331.29v.38l-.175.123.175.176v.36l-.331.3v-.64l-.929.788v.69l-.775.804h-.755l-.868.788h.665l-.304.375h-.497l-.135-.227-.11.227h-.52l-.357-.375h.69l-.772-.788h-.762l-.863-.803v-.691l-.799-.734v.633l-.414-.347v-.395l.153-.141-.153-.124v-.378l.414-.291v.56l.799-.622v-.718l.863-.785h.792l.742-.805h-.69l.294-.287Z" fill="#DFDFDF"/><path d="m27.185 13.681-.028 4-.146.156h-4.298l-.147-.157v-3.999h4.62Zm-.427.389h-3.81v3.388h3.81V14.07Z" fill="#000000"/><path d="m27.151 13.701-.017 3.988-.124.13h-4.288l-.137-.145V13.7h4.566Zm-.393.369h-3.81v3.388h3.81V14.07Z" fill="#DFDFDF"/><path d="m27.938 15.754-3.016 2.944L21.8 15.63l2.993-2.86 3.144 2.984Zm-3.152-2.498-2.511 2.383 2.647 2.65 2.48-2.391-2.616-2.642Z" fill="#000000"/><path d="m27.894 15.753-2.966 2.903-3.065-3.025 2.934-2.813 3.097 2.935Zm-3.108-2.497-2.511 2.383 2.647 2.65 2.48-2.391-2.616-2.642Z" fill="#DFDFDF"/><path fill="#000000" d="m24.853 14.372.385-.36v1.35h1.52l-.35.33.35.373h-1.546l.026 1.393-.383-.338-.388.338v-1.393h-1.49l.36-.373-.389-.33h1.519v-1.35z"/><path fill="#DFDFDF" d="m24.855 14.404.37-.356v1.335h1.49l-.333.31.333.358h-1.52l.03 1.377-.37-.33-.37.33V16.05h-1.478l.352-.359-.368-.31h1.493v-1.334z"/><path fill="#000000" d="m25.817 14.771.526.018-.954.955 1.075 1.075-.481-.015-.016.511-1.093-1.093-.967 1.003-.032-.51-.513-.035.985-.985-1.054-1.054.518-.009-.042-.508 1.074 1.074.955-.954z"/><path fill="#DFDFDF" d="m25.795 14.795.514.01-.944.944 1.054 1.054-.454-.017-.019.49-1.075-1.076-.952.995-.029-.495-.495-.03.974-.973-1.044-1.044.502-.005-.042-.479 1.056 1.056.944-.944z"/><path d="M24.14 4.753h.64l.068.11.096-.11h.615l.339.347h-.758l.852.76h.758l.873.794v.639l.702.656.085-.067v-.5l.408.358v.383l-.152.125.152.143v.4l-.408.381v-.67l-.858.743v.7l-.802.814h-.758l-.79.714h.644l-.35.44h-.552l-.096-.169-.068.168h-.564l-.432-.439h.714l-.714-.714h-.782l-.871-.814v-.7l-.743-.676v.603l-.497-.38v-.4l.165-.144-.165-.125V7.74l.497-.358v.567l.743-.567v-.728l.871-.795h.782l.714-.759h-.714l.357-.347Z" fill="#000000"/><path d="M24.156 4.787h.63l.063.109.089-.109h.57l.308.287h-.748l.92.805h.755l.84.785v.638l.743.701.121-.095v-.464l.331.29v.38l-.175.123.175.176v.36l-.331.3v-.64l-.929.788v.69l-.775.804h-.755l-.868.788h.665l-.304.375h-.497l-.135-.227-.11.227h-.52l-.357-.375h.69l-.772-.788h-.762l-.863-.803V9.22l-.799-.734v.633l-.414-.347v-.395l.153-.141-.153-.124v-.378l.414-.291v.56l.799-.622v-.718l.863-.785h.792l.742-.805h-.69l.294-.287Z" fill="#DFDFDF"/><path d="m27.185 6.281-.028 4-.146.156h-4.298l-.147-.157V6.281h4.62Zm-.427.389h-3.81v3.388h3.81V6.67Z" fill="#000000"/><path d="m27.151 6.301-.017 3.988-.124.13h-4.288l-.137-.145V6.3h4.566Zm-.393.369h-3.81v3.388h3.81V6.67Z" fill="#DFDFDF"/><path d="m27.938 8.354-3.016 2.944L21.8 8.23l2.993-2.86 3.144 2.984Zm-3.152-2.498-2.511 2.383 2.647 2.65 2.48-2.391-2.616-2.642Z" fill="#000000"/><path d="m27.894 8.353-2.966 2.903-3.065-3.025 2.934-2.813 3.097 2.935Zm-3.108-2.497-2.511 2.383 2.647 2.65 2.48-2.391-2.616-2.642Z" fill="#DFDFDF"/><path fill="#000000" d="m24.853 6.972.385-.36v1.35h1.52l-.35.33.35.373h-1.546l.026 1.393-.383-.338-.388.338V8.665h-1.49l.36-.373-.389-.33h1.519v-1.35z"/><path fill="#DFDFDF" d="m24.855 7.004.37-.356v1.335h1.49l-.333.31.333.358h-1.52l.03 1.377-.37-.33-.37.33V8.65h-1.478l.352-.359-.368-.31h1.493V6.649z"/><path fill="#000000" d="m25.817 7.371.526.018-.954.955 1.075 1.075-.481-.015-.016.511-1.093-1.093-.967 1.003-.032-.51-.513-.035.985-.985-1.054-1.054.518-.009-.042-.508 1.074 1.074.955-.954z"/><path fill="#DFDFDF" d="m25.795 7.395.514.01-.944.944 1.054 1.054-.454-.017-.019.49L24.871 8.8l-.952.995-.029-.495-.495-.03.974-.973-1.044-1.044.502-.005-.042-.479 1.056 1.056.944-.944z"/><path fill="#000000" d="M27.623-.746v.639l-.071 1.952v.7l-.802.814h-.758l-.79.714h.644l-.35.44h-.552l-.096-.169-.068.168h-.564l-.432-.439h.714l-.714-.714h-.782l-.871-.814v-.7l-.743-.676v.603l-.497-.38v-.4l.165-.144-.165-.125V.34l.497-.358V.55l.743-.567v-.728z"/><path fill="#DFDFDF" d="m27.582-.098-.064 1.919v.69l-.775.804h-.755l-.868.788h.665l-.304.375h-.497l-.135-.227-.11.227h-.52l-.357-.375h.69l-.772-.788h-.762l-.863-.803V1.82l-.799-.734v.633l-.414-.347V.978l.153-.141-.153-.124V.335l.414-.291v.56l.799-.622z"/><path d="m27.185-1.119-.028 4-.146.156h-4.298l-.147-.157v-3.999h4.62Zm-.427.389h-3.81v3.388h3.81V-.73Z" fill="#000000"/><path d="m27.151-1.099-.017 3.988-.124.13h-4.288l-.137-.145V-1.1h4.566Zm-.393.369h-3.81v3.388h3.81V-.73Z" fill="#DFDFDF"/><path d="M27.938.954 24.92 3.898 21.801.83l2.993-2.86L27.938.954Zm-3.152-2.498L22.275.839l2.647 2.65 2.48-2.391-2.616-2.642Z" fill="#000000"/><path d="m27.894.953-2.966 2.903L21.863.831l2.934-2.813L27.894.953Zm-3.108-2.497L22.275.839l2.647 2.65 2.48-2.391-2.616-2.642Z" fill="#DFDFDF"/><path fill="#000000" d="m24.853-.428.385-.36v1.35h1.52l-.35.33.35.373h-1.546l.026 1.393-.383-.338-.388.338V1.265h-1.49l.36-.373-.389-.33h1.519v-1.35z"/><path fill="#DFDFDF" d="m24.855-.396.37-.356V.583h1.49l-.333.31.333.358h-1.52l.03 1.377-.37-.33-.37.33V1.25h-1.478l.352-.359-.368-.31h1.493V-.751z"/><path fill="#000000" d="m25.817-.029.526.018-.954.955 1.075 1.075-.481-.015-.016.511-1.093-1.093-.967 1.003-.032-.51-.513-.035.985-.985-1.054-1.054.518-.009-.042-.508L24.843.398l.955-.954z"/><path fill="#DFDFDF" d="m25.795-.005.514.01-.944.944 1.054 1.054-.454-.017-.019.49L24.871 1.4l-.952.995-.029-.495-.495-.03.974-.973-1.044-1.044.502-.005-.042-.479L24.841.425l.944-.944z"/><path d="M24.14 19.553h.64l.068.11.096-.11h.615l.339.347h-.758l.852.76h.758l.873.794v.639l.702.656.085-.067v-.5l.408.358v.383l-.152.125.152.143v.4l-.408.381v-.67l-.858.743v.7l-.802.814h-.758l-.79.714h.644l-.35.44h-.552l-.096-.169-.068.168h-.564l-.432-.439h.714l-.714-.714h-.782l-.871-.814v-.7l-.743-.676v.603l-.497-.38v-.4l.165-.144-.165-.125v-.383l.497-.358v.567l.743-.567v-.728l.871-.795h.782l.714-.759h-.714l.357-.347Z" fill="#000000"/><path d="M24.156 19.587h.63l.063.109.089-.109h.57l.308.287h-.748l.92.805h.755l.84.785v.638l.743.701.121-.095v-.464l.331.29v.38l-.175.123.175.176v.36l-.331.3v-.64l-.929.788v.69l-.775.804h-.755l-.868.788h.665l-.304.375h-.497l-.135-.227-.11.227h-.52l-.357-.375h.69l-.772-.788h-.762l-.863-.803v-.691l-.799-.734v.633l-.414-.347v-.395l.153-.141-.153-.124v-.378l.414-.291v.56l.799-.622v-.718l.863-.785h.792l.742-.805h-.69l.294-.287Z" fill="#DFDFDF"/><path d="m27.185 21.081-.028 4-.146.156h-4.298l-.147-.157v-3.999h4.62Zm-.427.389h-3.81v3.388h3.81V21.47Z" fill="#000000"/><path d="m27.151 21.101-.017 3.988-.124.13h-4.288l-.137-.145V21.1h4.566Zm-.393.369h-3.81v3.388h3.81V21.47Z" fill="#DFDFDF"/><path d="m27.938 23.154-3.016 2.944L21.8 23.03l2.993-2.86 3.144 2.984Zm-3.152-2.498-2.511 2.383 2.647 2.65 2.48-2.391-2.616-2.642Z" fill="#000000"/><path d="m27.894 23.153-2.966 2.903-3.065-3.025 2.934-2.813 3.097 2.935Zm-3.108-2.497-2.511 2.383 2.647 2.65 2.48-2.391-2.616-2.642Z" fill="#DFDFDF"/><path fill="#000000" d="m24.853 21.772.385-.36v1.35h1.52l-.35.33.35.373h-1.546l.026 1.393-.383-.338-.388.338v-1.393h-1.49l.36-.373-.389-.33h1.519v-1.35z"/><path fill="#DFDFDF" d="m24.855 21.804.37-.356v1.335h1.49l-.333.31.333.358h-1.52l.03 1.377-.37-.33-.37.33V23.45h-1.478l.352-.359-.368-.31h1.493v-1.334z"/><path fill="#000000" d="m25.817 22.171.526.018-.954.955 1.075 1.075-.481-.015-.016.511-1.093-1.093-.967 1.003-.032-.51-.513-.035.985-.985-1.054-1.054.518-.009-.042-.508 1.074 1.074.955-.954z"/><path fill="#DFDFDF" d="m25.795 22.195.514.01-.944.944 1.054 1.054-.454-.017-.019.49-1.075-1.076-.952.995-.029-.495-.495-.03.974-.973-1.044-1.044.502-.005-.042-.479 1.056 1.056.944-.944z"/><path d="M19.14 45.553h.64l.068.11.096-.11h.615l.339.347h-.758l.852.76h.758l.873.794H17.13l.871-.795h.782l.714-.759h-.714l.357-.347Z" fill="#000000"/><path d="M19.156 45.587h.63l.063.109.089-.109h.57l.308.287h-.748l.92.805h.755l.84.785h-5.428l.863-.785h.792l.742-.805h-.69l.294-.287Z" fill="#DFDFDF"/><path d="m22.938 49.154-3.016 2.944L16.8 49.03l2.993-2.86 3.144 2.984Zm-3.152-2.498-2.511 2.383 2.647 2.65 2.48-2.391-2.616-2.642Z" fill="#000000"/><path d="m22.894 49.153-2.966 2.903-3.065-3.025 2.934-2.813 3.097 2.935Zm-3.108-2.497-2.511 2.383 2.647 2.65 2.48-2.391-2.616-2.642Z" fill="#DFDFDF"/><path fill="#000000" d="m20.817 48.171.526.018-.954.955 1.075 1.075-.481-.015-.016.511-1.093-1.093-.967 1.003-.032-.51-.513-.035.985-.985-1.054-1.054.518-.009-.042-.508 1.074 1.074.955-.954z"/><path fill="#DFDFDF" d="m20.795 48.195.514.01-.944.944 1.054 1.054-.454-.017-.019.49-1.075-1.076-.952.995-.029-.495-.495-.03.974-.973-1.044-1.044.502-.005-.042-.479 1.056 1.056.944-.944z"/><path d="M19.14 38.153h.64l.068.11.096-.11h.615l.339.347h-.758l.852.76h.758l.873.794v.639l.702.656.085-.067v-.5l.408.358v.383l-.152.125.152.143v.4l-.408.381v-.67l-.858.743v.7l-.802.814h-.758l-.79.714h.644l-.35.44h-.552l-.096-.169-.068.168h-.564l-.432-.439h.714l-.714-.714h-.782l-.871-.814v-.7l-.743-.676v.603l-.497-.38v-.4l.165-.144-.165-.125v-.383l.497-.358v.567l.743-.567v-.728l.871-.795h.782l.714-.759h-.714l.357-.347Z" fill="#000000"/><path d="M19.156 38.187h.63l.063.109.089-.109h.57l.308.287h-.748l.92.805h.755l.84.785v.638l.743.701.121-.095v-.464l.331.29v.38l-.175.123.175.176v.36l-.331.3v-.64l-.929.788v.69l-.775.804h-.755l-.868.788h.665l-.304.375h-.497l-.135-.227-.11.227h-.52l-.357-.375h.69l-.772-.788h-.762l-.863-.803v-.691l-.799-.734v.633l-.414-.347v-.395l.153-.141-.153-.124v-.378l.414-.291v.56l.799-.622v-.718l.863-.785h.792l.742-.805h-.69l.294-.287Z" fill="#DFDFDF"/><path d="m22.185 39.681-.028 4-.146.156h-4.298l-.147-.157v-3.999h4.62Zm-.427.389h-3.81v3.388h3.81V40.07Z" fill="#000000"/><path d="m22.151 39.701-.017 3.988-.124.13h-4.288l-.137-.145V39.7h4.566Zm-.393.369h-3.81v3.388h3.81V40.07Z" fill="#DFDFDF"/><path d="m22.938 41.754-3.016 2.944L16.8 41.63l2.993-2.86 3.144 2.984Zm-3.152-2.498-2.511 2.383 2.647 2.65 2.48-2.391-2.616-2.642Z" fill="#000000"/><path d="m22.894 41.753-2.966 2.903-3.065-3.025 2.934-2.813 3.097 2.935Zm-3.108-2.497-2.511 2.383 2.647 2.65 2.48-2.391-2.616-2.642Z" fill="#DFDFDF"/><path fill="#000000" d="m19.853 40.372.385-.36v1.35h1.52l-.35.33.35.373h-1.546l.026 1.393-.383-.338-.388.338v-1.393h-1.49l.36-.373-.389-.33h1.519v-1.35z"/><path fill="#DFDFDF" d="m19.855 40.404.37-.356v1.335h1.49l-.333.31.333.358h-1.52l.03 1.377-.37-.33-.37.33V42.05h-1.478l.352-.359-.368-.31h1.493v-1.334z"/><path fill="#000000" d="m20.817 40.771.526.018-.954.955 1.075 1.075-.481-.015-.016.511-1.093-1.093-.967 1.003-.032-.51-.513-.035.985-.985-1.054-1.054.518-.009-.042-.508 1.074 1.074.955-.954z"/><path fill="#DFDFDF" d="m20.795 40.795.514.01-.944.944 1.054 1.054-.454-.017-.019.49-1.075-1.076-.952.995-.029-.495-.495-.03.974-.973-1.044-1.044.502-.005-.042-.479 1.056 1.056.944-.944z"/><path d="M19.14 30.753h.64l.068.11.096-.11h.615l.339.347h-.758l.852.76h.758l.873.794v.639l.702.656.085-.067v-.5l.408.358v.383l-.152.125.152.143v.4l-.408.381v-.67l-.858.743v.7l-.802.814h-.758l-.79.714h.644l-.35.44h-.552l-.096-.169-.068.168h-.564l-.432-.439h.714l-.714-.714h-.782l-.871-.814v-.7l-.743-.676v.603l-.497-.38v-.4l.165-.144-.165-.125v-.383l.497-.358v.567l.743-.567v-.728l.871-.795h.782l.714-.759h-.714l.357-.347Z" fill="#000000"/><path d="M19.156 30.787h.63l.063.109.089-.109h.57l.308.287h-.748l.92.805h.755l.84.785v.638l.743.701.121-.095v-.464l.331.29v.38l-.175.123.175.176v.36l-.331.3v-.64l-.929.788v.69l-.775.804h-.755l-.868.788h.665l-.304.375h-.497l-.135-.227-.11.227h-.52l-.357-.375h.69l-.772-.788h-.762l-.863-.803v-.691l-.799-.734v.633l-.414-.347v-.395l.153-.141-.153-.124v-.378l.414-.291v.56l.799-.622v-.718l.863-.785h.792l.742-.805h-.69l.294-.287Z" fill="#DFDFDF"/><path d="m22.185 32.281-.028 4-.146.156h-4.298l-.147-.157v-3.999h4.62Zm-.427.389h-3.81v3.388h3.81V32.67Z" fill="#000000"/><path d="m22.151 32.301-.017 3.988-.124.13h-4.288l-.137-.145V32.3h4.566Zm-.393.369h-3.81v3.388h3.81V32.67Z" fill="#DFDFDF"/><path d="m22.938 34.354-3.016 2.944L16.8 34.23l2.993-2.86 3.144 2.984Zm-3.152-2.498-2.511 2.383 2.647 2.65 2.48-2.391-2.616-2.642Z" fill="#000000"/><path d="m22.894 34.353-2.966 2.903-3.065-3.025 2.934-2.813 3.097 2.935Zm-3.108-2.497-2.511 2.383 2.647 2.65 2.48-2.391-2.616-2.642Z" fill="#DFDFDF"/><path fill="#000000" d="m19.853 32.972.385-.36v1.35h1.52l-.35.33.35.373h-1.546l.026 1.393-.383-.338-.388.338v-1.393h-1.49l.36-.373-.389-.33h1.519v-1.35z"/><path fill="#DFDFDF" d="m19.855 33.004.37-.356v1.335h1.49l-.333.31.333.358h-1.52l.03 1.377-.37-.33-.37.33V34.65h-1.478l.352-.359-.368-.31h1.493v-1.334z"/><path fill="#000000" d="m20.817 33.371.526.018-.954.955 1.075 1.075-.481-.015-.016.511-1.093-1.093-.967 1.003-.032-.51-.513-.035.985-.985-1.054-1.054.518-.009-.042-.508 1.074 1.074.955-.954z"/><path fill="#DFDFDF" d="m20.795 33.395.514.01-.944.944 1.054 1.054-.454-.017-.019.49-1.075-1.076-.952.995-.029-.495-.495-.03.974-.973-1.044-1.044.502-.005-.042-.479 1.056 1.056.944-.944z"/><path d="M19.14 15.953h.64l.068.11.096-.11h.615l.339.347h-.758l.852.76h.758l.873.794v.639l.702.656.085-.067v-.5l.408.358v.383l-.152.125.152.143v.4l-.408.381v-.67l-.858.743v.7l-.802.814h-.758l-.79.714h.644l-.35.44h-.552l-.096-.169-.068.168h-.564l-.432-.439h.714l-.714-.714h-.782l-.871-.814v-.7l-.743-.676v.603l-.497-.38v-.4l.165-.144-.165-.125v-.383l.497-.358v.567l.743-.567v-.728l.871-.795h.782l.714-.759h-.714l.357-.347Z" fill="#000000"/><path d="M19.156 15.987h.63l.063.109.089-.109h.57l.308.287h-.748l.92.805h.755l.84.785v.638l.743.701.121-.095v-.464l.331.29v.38l-.175.123.175.176v.36l-.331.3v-.64l-.929.788v.69l-.775.804h-.755l-.868.788h.665l-.304.375h-.497l-.135-.227-.11.227h-.52l-.357-.375h.69l-.772-.788h-.762l-.863-.803v-.691l-.799-.734v.633l-.414-.347v-.395l.153-.141-.153-.124v-.378l.414-.291v.56l.799-.622v-.718l.863-.785h.792l.742-.805h-.69l.294-.287Z" fill="#DFDFDF"/><path d="m22.185 17.481-.028 4-.146.156h-4.298l-.147-.157v-3.999h4.62Zm-.427.389h-3.81v3.388h3.81V17.87Z" fill="#000000"/><path d="m22.151 17.501-.017 3.988-.124.13h-4.288l-.137-.145V17.5h4.566Zm-.393.369h-3.81v3.388h3.81V17.87Z" fill="#DFDFDF"/><path d="m22.938 19.554-3.016 2.944L16.8 19.43l2.993-2.86 3.144 2.984Zm-3.152-2.498-2.511 2.383 2.647 2.65 2.48-2.391-2.616-2.642Z" fill="#000000"/><path d="m22.894 19.553-2.966 2.903-3.065-3.025 2.934-2.813 3.097 2.935Zm-3.108-2.497-2.511 2.383 2.647 2.65 2.48-2.391-2.616-2.642Z" fill="#DFDFDF"/><path fill="#000000" d="m19.853 18.172.385-.36v1.35h1.52l-.35.33.35.373h-1.546l.026 1.393-.383-.338-.388.338v-1.393h-1.49l.36-.373-.389-.33h1.519v-1.35z"/><path fill="#DFDFDF" d="m19.855 18.204.37-.356v1.335h1.49l-.333.31.333.358h-1.52l.03 1.377-.37-.33-.37.33V19.85h-1.478l.352-.359-.368-.31h1.493v-1.334z"/><path fill="#000000" d="m20.817 18.571.526.018-.954.955 1.075 1.075-.481-.015-.016.511-1.093-1.093-.967 1.003-.032-.51-.513-.035.985-.985-1.054-1.054.518-.009-.042-.508 1.074 1.074.955-.954z"/><path fill="#DFDFDF" d="m20.795 18.595.514.01-.944.944 1.054 1.054-.454-.017-.019.49L19.871 20l-.952.995-.029-.495-.495-.03.974-.973-1.044-1.044.502-.005-.042-.479 1.056 1.056.944-.944z"/><path d="M19.14 8.553h.64l.068.11.096-.11h.615l.339.347h-.758l.852.76h.758l.873.794v.639l.702.656.085-.067v-.5l.408.358v.383l-.152.125.152.143v.4l-.408.381v-.67l-.858.743v.7l-.802.814h-.758l-.79.714h.644l-.35.44h-.552l-.096-.169-.068.168h-.564l-.432-.439h.714l-.714-.714h-.782l-.871-.814v-.7l-.743-.676v.603l-.497-.38v-.4l.165-.144-.165-.125v-.383l.497-.358v.567l.743-.567v-.728l.871-.795h.782l.714-.759h-.714l.357-.347Z" fill="#000000"/><path d="M19.156 8.587h.63l.063.109.089-.109h.57l.308.287h-.748l.92.805h.755l.84.785v.638l.743.701.121-.095v-.464l.331.29v.38l-.175.123.175.176v.36l-.331.3v-.64l-.929.788v.69l-.775.804h-.755l-.868.788h.665l-.304.375h-.497l-.135-.227-.11.227h-.52l-.357-.375h.69l-.772-.788h-.762l-.863-.803v-.691l-.799-.734v.633l-.414-.347v-.395l.153-.141-.153-.124v-.378l.414-.291v.56l.799-.622v-.718l.863-.785h.792l.742-.805h-.69l.294-.287Z" fill="#DFDFDF"/><path d="m22.185 10.081-.028 4-.146.156h-4.298l-.147-.157v-3.999h4.62Zm-.427.389h-3.81v3.388h3.81V10.47Z" fill="#000000"/><path d="m22.151 10.101-.017 3.988-.124.13h-4.288l-.137-.145V10.1h4.566Zm-.393.369h-3.81v3.388h3.81V10.47Z" fill="#DFDFDF"/><path d="m22.938 12.154-3.016 2.944L16.8 12.03l2.993-2.86 3.144 2.984Zm-3.152-2.498-2.511 2.383 2.647 2.65 2.48-2.391-2.616-2.642Z" fill="#000000"/><path d="m22.894 12.153-2.966 2.903-3.065-3.025 2.934-2.813 3.097 2.935Zm-3.108-2.497-2.511 2.383 2.647 2.65 2.48-2.391-2.616-2.642Z" fill="#DFDFDF"/><path fill="#000000" d="m19.853 10.772.385-.36v1.35h1.52l-.35.33.35.373h-1.546l.026 1.393-.383-.338-.388.338v-1.393h-1.49l.36-.373-.389-.33h1.519v-1.35z"/><path fill="#DFDFDF" d="m19.855 10.804.37-.356v1.335h1.49l-.333.31.333.358h-1.52l.03 1.377-.37-.33-.37.33V12.45h-1.478l.352-.359-.368-.31h1.493v-1.334z"/><path fill="#000000" d="m20.817 11.171.526.018-.954.955 1.075 1.075-.481-.015-.016.511-1.093-1.093-.967 1.003-.032-.51-.513-.035.985-.985-1.054-1.054.518-.009-.042-.508 1.074 1.074.955-.954z"/><path fill="#DFDFDF" d="m20.795 11.195.514.01-.944.944 1.054 1.054-.454-.017-.019.49-1.075-1.076-.952.995-.029-.495-.495-.03.974-.973-1.044-1.044.502-.005-.042-.479 1.056 1.056.944-.944z"/><path d="M19.14 1.153h.64l.068.11.096-.11h.615l.339.347h-.758l.852.76h.758l.873.794v.639l.702.656.085-.067v-.5l.408.358v.383l-.152.125.152.143v.4l-.408.381v-.67l-.858.743v.7l-.802.814h-.758l-.79.714h.644l-.35.44h-.552l-.096-.169-.068.168h-.564l-.432-.439h.714l-.714-.714h-.782l-.871-.814v-.7l-.743-.676v.603l-.497-.38v-.4l.165-.144-.165-.125V4.14l.497-.358v.567l.743-.567v-.728l.871-.795h.782l.714-.759h-.714l.357-.347Z" fill="#000000"/><path d="M19.156 1.187h.63l.063.109.089-.109h.57l.308.287h-.748l.92.805h.755l.84.785v.638l.743.701.121-.095v-.464l.331.29v.38l-.175.123.175.176v.36l-.331.3v-.64l-.929.788v.69l-.775.804h-.755l-.868.788h.665l-.304.375h-.497l-.135-.227-.11.227h-.52l-.357-.375h.69l-.772-.788h-.762l-.863-.803V5.62l-.799-.734v.633l-.414-.347v-.395l.153-.141-.153-.124v-.378l.414-.291v.56l.799-.622v-.718l.863-.785h.792l.742-.805h-.69l.294-.287Z" fill="#DFDFDF"/><path d="m22.185 2.681-.028 4-.146.156h-4.298l-.147-.157V2.681h4.62Zm-.427.389h-3.81v3.388h3.81V3.07Z" fill="#000000"/><path d="m22.151 2.701-.017 3.988-.124.13h-4.288l-.137-.145V2.7h4.566Zm-.393.369h-3.81v3.388h3.81V3.07Z" fill="#DFDFDF"/><path d="m22.938 4.754-3.016 2.944L16.8 4.63l2.993-2.86 3.144 2.984Zm-3.152-2.498-2.511 2.383 2.647 2.65 2.48-2.391-2.616-2.642Z" fill="#000000"/><path d="m22.894 4.753-2.966 2.903-3.065-3.025 2.934-2.813 3.097 2.935Zm-3.108-2.497-2.511 2.383 2.647 2.65 2.48-2.391-2.616-2.642Z" fill="#DFDFDF"/><path fill="#000000" d="m19.853 3.372.385-.36v1.35h1.52l-.35.33.35.373h-1.546l.026 1.393-.383-.338-.388.338V5.065h-1.49l.36-.373-.389-.33h1.519v-1.35z"/><path fill="#DFDFDF" d="m19.855 3.404.37-.356v1.335h1.49l-.333.31.333.358h-1.52l.03 1.377-.37-.33-.37.33V5.05h-1.478l.352-.359-.368-.31h1.493V3.049z"/><path fill="#000000" d="m20.817 3.771.526.018-.954.955 1.075 1.075-.481-.015-.016.511-1.093-1.093-.967 1.003-.032-.51-.513-.035.985-.985-1.054-1.054.518-.009-.042-.508 1.074 1.074.955-.954z"/><path fill="#DFDFDF" d="m20.795 3.795.514.01-.944.944 1.054 1.054-.454-.017-.019.49L19.871 5.2l-.952.995-.029-.495-.495-.03.974-.973-1.044-1.044.502-.005-.042-.479 1.056 1.056.944-.944z"/><path d="M19.14 23.353h.64l.068.11.096-.11h.615l.339.347h-.758l.852.76h.758l.873.794v.639l.702.656.085-.067v-.5l.408.358v.383l-.152.125.152.143v.4l-.408.381v-.67l-.858.743v.7l-.802.814h-.758l-.79.714h.644l-.35.44h-.552l-.096-.169-.068.168h-.564l-.432-.439h.714l-.714-.714h-.782l-.871-.814v-.7l-.743-.676v.603l-.497-.38v-.4l.165-.144-.165-.125v-.383l.497-.358v.567l.743-.567v-.728l.871-.795h.782l.714-.759h-.714l.357-.347Z" fill="#000000"/><path d="M19.156 23.387h.63l.063.109.089-.109h.57l.308.287h-.748l.92.805h.755l.84.785v.638l.743.701.121-.095v-.464l.331.29v.38l-.175.123.175.176v.36l-.331.3v-.64l-.929.788v.69l-.775.804h-.755l-.868.788h.665l-.304.375h-.497l-.135-.227-.11.227h-.52l-.357-.375h.69l-.772-.788h-.762l-.863-.803v-.691l-.799-.734v.633l-.414-.347v-.395l.153-.141-.153-.124v-.378l.414-.291v.56l.799-.622v-.718l.863-.785h.792l.742-.805h-.69l.294-.287Z" fill="#DFDFDF"/><path d="m22.185 24.881-.028 4-.146.156h-4.298l-.147-.157v-3.999h4.62Zm-.427.389h-3.81v3.388h3.81V25.27Z" fill="#000000"/><path d="m22.151 24.901-.017 3.988-.124.13h-4.288l-.137-.145V24.9h4.566Zm-.393.369h-3.81v3.388h3.81V25.27Z" fill="#DFDFDF"/><path d="m22.938 26.954-3.016 2.944L16.8 26.83l2.993-2.86 3.144 2.984Zm-3.152-2.498-2.511 2.383 2.647 2.65 2.48-2.391-2.616-2.642Z" fill="#000000"/><path d="m22.894 26.953-2.966 2.903-3.065-3.025 2.934-2.813 3.097 2.935Zm-3.108-2.497-2.511 2.383 2.647 2.65 2.48-2.391-2.616-2.642Z" fill="#DFDFDF"/><path fill="#000000" d="m19.853 25.572.385-.36v1.35h1.52l-.35.33.35.373h-1.546l.026 1.393-.383-.338-.388.338v-1.393h-1.49l.36-.373-.389-.33h1.519v-1.35z"/><path fill="#DFDFDF" d="m19.855 25.604.37-.356v1.335h1.49l-.333.31.333.358h-1.52l.03 1.377-.37-.33-.37.33V27.25h-1.478l.352-.359-.368-.31h1.493v-1.334z"/><path fill="#000000" d="m20.817 25.971.526.018-.954.955 1.075 1.075-.481-.015-.016.511-1.093-1.093-.967 1.003-.032-.51-.513-.035.985-.985-1.054-1.054.518-.009-.042-.508 1.074 1.074.955-.954z"/><path fill="#DFDFDF" d="m20.795 25.995.514.01-.944.944 1.054 1.054-.454-.017-.019.49-1.075-1.076-.952.995-.029-.495-.495-.03.974-.973-1.044-1.044.502-.005-.042-.479 1.056 1.056.944-.944z"/><path fill="#000000" d="m29.14 38.153.076 7.16-.432-.44v-.714h-.782l-.871-.814v-.7l-.743-.676v.603l-.497-.38v-.4l.165-.144-.165-.125v-.383l.497-.358v.567l.743-.567v-.728l.871-.795h.782V38.5z"/><path fill="#DFDFDF" d="m29.156 38.187.063 7.091-.357-.375-.082-.788h-.762l-.863-.803v-.691l-.799-.734v.633l-.414-.347v-.395l.153-.141-.153-.124v-.378l.414-.291v.56l.799-.622v-.718l.863-.785h.792l.052-.805z"/><path d="m32.185 39.681-.028 4-.146.156h-4.298l-.147-.157v-3.999h4.62Zm-.427.389h-3.81v3.388h3.81V40.07Z" fill="#000000"/><path d="m32.151 39.701-.017 3.988-.124.13h-4.288l-.137-.145V39.7h4.566Zm-.393.369h-3.81v3.388h3.81V40.07Z" fill="#DFDFDF"/><path d="m32.938 41.754-3.016 2.944L26.8 41.63l2.993-2.86 3.144 2.984Zm-3.152-2.498-2.511 2.383 2.647 2.65 2.48-2.391-2.616-2.642Z" fill="#000000"/><path d="m32.894 41.753-2.966 2.903-3.065-3.025 2.934-2.813 3.097 2.935Zm-3.108-2.497-2.511 2.383 2.647 2.65 2.48-2.391-2.616-2.642Z" fill="#DFDFDF"/><path fill="#000000" d="m29.853 40.372.385-.36v1.35h1.52l-.35.33.35.373h-1.546l.026 1.393-.383-.338-.388.338v-1.393h-1.49l.36-.373-.389-.33h1.519v-1.35z"/><path fill="#DFDFDF" d="m29.855 40.404.37-.356v1.335h1.49l-.333.31.333.358h-1.52l.03 1.377-.37-.33-.37.33V42.05h-1.478l.352-.359-.368-.31h1.493v-1.334z"/><path fill="#000000" d="m30.817 40.771.526.018-.954.955 1.075 1.075-.481-.015-.016.511-1.093-1.093-.967 1.003-.032-.51-.513-.035.985-.985-1.054-1.054.518-.009-.042-.508 1.074 1.074.955-.954z"/><path fill="#DFDFDF" d="m30.795 40.795.514.01-.944.944 1.054 1.054-.454-.017-.019.49-1.075-1.076-.952.995-.029-.495-.495-.03.974-.973-1.044-1.044.502-.005-.042-.479 1.056 1.056.944-.944z"/><path fill="#000000" d="m29.14 30.753.076 7.16-.432-.44v-.714h-.782l-.871-.814v-.7l-.743-.676v.603l-.497-.38v-.4l.165-.144-.165-.125v-.383l.497-.358v.567l.743-.567v-.728l.871-.795h.782V31.1z"/><path fill="#DFDFDF" d="m29.156 30.787.063 7.091-.357-.375-.082-.788h-.762l-.863-.803v-.691l-.799-.734v.633l-.414-.347v-.395l.153-.141-.153-.124v-.378l.414-.291v.56l.799-.622v-.718l.863-.785h.792l.052-.805z"/><path d="m32.185 32.281-.028 4-.146.156h-4.298l-.147-.157v-3.999h4.62Zm-.427.389h-3.81v3.388h3.81V32.67Z" fill="#000000"/><path d="m32.151 32.301-.017 3.988-.124.13h-4.288l-.137-.145V32.3h4.566Zm-.393.369h-3.81v3.388h3.81V32.67Z" fill="#DFDFDF"/><path d="m32.938 34.354-3.016 2.944L26.8 34.23l2.993-2.86 3.144 2.984Zm-3.152-2.498-2.511 2.383 2.647 2.65 2.48-2.391-2.616-2.642Z" fill="#000000"/><path d="m32.894 34.353-2.966 2.903-3.065-3.025 2.934-2.813 3.097 2.935Zm-3.108-2.497-2.511 2.383 2.647 2.65 2.48-2.391-2.616-2.642Z" fill="#DFDFDF"/><path fill="#000000" d="m29.853 32.972.385-.36v1.35h1.52l-.35.33.35.373h-1.546l.026 1.393-.383-.338-.388.338v-1.393h-1.49l.36-.373-.389-.33h1.519v-1.35z"/><path fill="#DFDFDF" d="m29.855 33.004.37-.356v1.335h1.49l-.333.31.333.358h-1.52l.03 1.377-.37-.33-.37.33V34.65h-1.478l.352-.359-.368-.31h1.493v-1.334z"/><path fill="#000000" d="m30.817 33.371.526.018-.954.955 1.075 1.075-.481-.015-.016.511-1.093-1.093-.967 1.003-.032-.51-.513-.035.985-.985-1.054-1.054.518-.009-.042-.508 1.074 1.074.955-.954z"/><path fill="#DFDFDF" d="m30.795 33.395.514.01-.944.944 1.054 1.054-.454-.017-.019.49-1.075-1.076-.952.995-.029-.495-.495-.03.974-.973-1.044-1.044.502-.005-.042-.479 1.056 1.056.944-.944z"/><path fill="#000000" d="m29.14 15.953-.356 6.72h.714l-.714-.714h-.782l-.871-.814v-.7l-.743-.676v.603l-.497-.38v-.4l.165-.144-.165-.125v-.383l.497-.358v.567l.743-.567v-.728l.871-.795h.782l.714-.759h-.714z"/><path fill="#DFDFDF" d="m29.156 15.987.063 7.091-.357-.375h.69l-.772-.788h-.762l-.863-.803v-.691l-.799-.734v.633l-.414-.347v-.395l.153-.141-.153-.124v-.378l.414-.291v.56l.799-.622v-.718l.863-.785h.792l.742-.805h-.69z"/><path d="m32.185 17.481-.028 4-.146.156h-4.298l-.147-.157v-3.999h4.62Zm-.427.389h-3.81v3.388h3.81V17.87Z" fill="#000000"/><path d="m32.151 17.501-.017 3.988-.124.13h-4.288l-.137-.145V17.5h4.566Zm-.393.369h-3.81v3.388h3.81V17.87Z" fill="#DFDFDF"/><path d="m32.938 19.554-3.016 2.944L26.8 19.43l2.993-2.86 3.144 2.984Zm-3.152-2.498-2.511 2.383 2.647 2.65 2.48-2.391-2.616-2.642Z" fill="#000000"/><path d="m32.894 19.553-2.966 2.903-3.065-3.025 2.934-2.813 3.097 2.935Zm-3.108-2.497-2.511 2.383 2.647 2.65 2.48-2.391-2.616-2.642Z" fill="#DFDFDF"/><path fill="#000000" d="m29.853 18.172.385-.36v1.35h1.52l-.35.33.35.373h-1.546l.026 1.393-.383-.338-.388.338v-1.393h-1.49l.36-.373-.389-.33h1.519v-1.35z"/><path fill="#DFDFDF" d="m29.855 18.204.37-.356v1.335h1.49l-.333.31.333.358h-1.52l.03 1.377-.37-.33-.37.33V19.85h-1.478l.352-.359-.368-.31h1.493v-1.334z"/><path fill="#000000" d="m30.817 18.571.526.018-.954.955 1.075 1.075-.481-.015-.016.511-1.093-1.093-.967 1.003-.032-.51-.513-.035.985-.985-1.054-1.054.518-.009-.042-.508 1.074 1.074.955-.954z"/><path fill="#DFDFDF" d="m30.795 18.595.514.01-.944.944 1.054 1.054-.454-.017-.019.49L29.871 20l-.952.995-.029-.495-.495-.03.974-.973-1.044-1.044.502-.005-.042-.479 1.056 1.056.944-.944z"/><path fill="#000000" d="M29.14 8.553h.64l.068.11.096-.11v7.16l-.096-.169-.068.168h-.564l-.432-.439h.714l-.714-.714h-.782l-.871-.814v-.7l-.743-.676v.603l-.497-.38v-.4l.165-.144-.165-.125v-.383l.497-.358v.567l.743-.567v-.728l.871-.795h.782l.714-.759h-.714z"/><path fill="#DFDFDF" d="M29.156 8.587h.63l.063.109.089-.109-.2 7.091h-.52l-.356-.375h.69l-.772-.788h-.762l-.863-.803v-.691l-.799-.734v.633l-.414-.347v-.395l.153-.141-.153-.124v-.378l.414-.291v.56l.799-.622v-.718l.863-.785h.792l.742-.805h-.69z"/><path d="m32.185 10.081-.028 4-.146.156h-4.298l-.147-.157v-3.999h4.62Zm-.427.389h-3.81v3.388h3.81V10.47Z" fill="#000000"/><path d="m32.151 10.101-.017 3.988-.124.13h-4.288l-.137-.145V10.1h4.566Zm-.393.369h-3.81v3.388h3.81V10.47Z" fill="#DFDFDF"/><path d="m32.938 12.154-3.016 2.944L26.8 12.03l2.993-2.86 3.144 2.984Zm-3.152-2.498-2.511 2.383 2.647 2.65 2.48-2.391-2.616-2.642Z" fill="#000000"/><path d="m29.797 9.218.11 4.853-.12-4.415-2.512 2.383 2.645 2.646.008.371-3.065-3.025 2.934-2.813Z" fill="#DFDFDF"/><path fill="#000000" d="m29.853 10.772.002 2.748-.388.338v-1.393h-1.49l.36-.373-.389-.33h1.519v-1.35z"/><path fill="#DFDFDF" d="m29.855 10.804.37-.356v1.335h1.49l-.333.31.333.358h-1.52l.03 1.377-.37-.33-.37.33V12.45h-1.478l.352-.359-.368-.31h1.493v-1.334z"/><path fill="#000000" d="m30.817 11.171.526.018-.954.955 1.075 1.075-.481-.015-.016.511-1.093-1.093-.967 1.003-.032-.51-.513-.035.985-.985-1.054-1.054.518-.009-.042-.508 1.074 1.074.955-.954z"/><path fill="#DFDFDF" d="m30.795 11.195.514.01-.944.944 1.054 1.054-.454-.017-.019.49-1.075-1.076-.952.995-.029-.495-.495-.03.974-.973-1.044-1.044.502-.005-.042-.479 1.056 1.056.944-.944z"/><path fill="#000000" d="m29.848 8.144-.068.168h-.564l-.432-.439h.714l-.714-.714h-.782l-.871-.814v-.7l-.743-.676v.603l-.497-.38v-.4l.165-.144-.165-.125V4.14l.497-.358v.567l.743-.567v-.728l.871-.795z"/><path fill="#DFDFDF" d="M30.12 7.903h.665l-.304.375h-.497l-.135-.227-.11.227h-.52l-.357-.375h.69l-.772-.788h-.762l-.863-.803V5.62l-.799-.734v.633l-.414-.347v-.395l.153-.141-.153-.124v-.378l.414-.291v.56l.799-.622v-.718l.863-.785h.792z"/><path d="m32.185 2.681-.028 4-.146.156h-4.298l-.147-.157V2.681h4.62Zm-.427.389h-3.81v3.388h3.81V3.07Z" fill="#000000"/><path d="m32.151 2.701-.017 3.988-.124.13h-4.288l-.137-.145V2.7h4.566Zm-.393.369h-3.81v3.388h3.81V3.07Z" fill="#DFDFDF"/><path d="M32.938 4.754 29.92 7.698l-3.12-3.068 2.993-2.86 3.144 2.984Zm-3.152-2.498-2.511 2.383 2.647 2.65 2.48-2.391-2.616-2.642Z" fill="#000000"/><path d="m32.894 4.753-2.966 2.903-3.065-3.025 2.934-2.813 3.097 2.935Zm-3.108-2.497-2.511 2.383 2.647 2.65 2.48-2.391-2.616-2.642Z" fill="#DFDFDF"/><path fill="#000000" d="m30.817 3.771.526.018-.954.955 1.075 1.075-.481-.015-.016.511-1.093-1.093-.967 1.003-.032-.51-.513-.035.985-.985-1.054-1.054.518-.009-.042-.508 1.074 1.074.955-.954z"/><path fill="#DFDFDF" d="m30.795 3.795.514.01-.944.944 1.054 1.054-.454-.017-.019.49L29.871 5.2l-.952.995-.029-.495-.495-.03.974-.973-1.044-1.044.502-.005-.042-.479 1.056 1.056.944-.944z"/><path fill="#000000" d="m29.14 23.353.076 7.16-.432-.44v-.714h-.782l-.871-.814v-.7l-.743-.676v.603l-.497-.38v-.4l.165-.144-.165-.125v-.383l.497-.358v.567l.743-.567v-.728l.871-.795h.782V23.7z"/><path fill="#DFDFDF" d="m29.552 30.103-.772-.788h-.762l-.863-.803v-.691l-.799-.734v.633l-.414-.347v-.395l.153-.141-.153-.124v-.378l.414-.291v.56l.799-.622v-.718l.863-.785h.792l.742-.805h-.69z"/><path d="m32.185 24.881-.028 4-.146.156h-4.298l-.147-.157v-3.999h4.62Zm-.427.389h-3.81v3.388h3.81V25.27Z" fill="#000000"/><path d="m32.151 24.901-.017 3.988-.124.13h-4.288l-.137-.145V24.9h4.566Zm-.393.369h-3.81v3.388h3.81V25.27Z" fill="#DFDFDF"/><path d="m32.938 26.954-3.016 2.944L26.8 26.83l2.993-2.86 3.144 2.984Zm-3.152-2.498-2.511 2.383 2.647 2.65 2.48-2.391-2.616-2.642Z" fill="#000000"/><path d="m32.894 26.953-2.966 2.903-3.065-3.025 2.934-2.813 3.097 2.935Zm-3.108-2.497-2.511 2.383 2.647 2.65 2.48-2.391-2.616-2.642Z" fill="#DFDFDF"/><path fill="#000000" d="m29.853 25.572.385-.36v1.35h1.52l-.35.33.35.373h-1.546l.026 1.393-.383-.338-.388.338v-1.393h-1.49l.36-.373-.389-.33h1.519v-1.35z"/><path fill="#DFDFDF" d="m29.855 25.604.37-.356v1.335h1.49l-.333.31.333.358h-1.52l.03 1.377-.37-.33-.37.33V27.25h-1.478l.352-.359-.368-.31h1.493v-1.334z"/><path fill="#000000" d="m30.817 25.971.526.018-.954.955 1.075 1.075-.481-.015-.016.511-1.093-1.093-.967 1.003-.032-.51-.513-.035.985-.985-1.054-1.054.518-.009-.042-.508 1.074 1.074.955-.954z"/><path fill="#DFDFDF" d="m30.795 25.995.514.01-.944.944 1.054 1.054-.454-.017-.019.49-1.075-1.076-.952.995-.029-.495-.495-.03.974-.973-1.044-1.044.502-.005-.042-.479 1.056 1.056.944-.944z"/></g></g></g><g mask="url(#b)"><path d="M17.25 1.5h13.5C28.186 4.723 25.936 6.335 24 6.335S19.814 4.723 17.25 1.5Z" fill="#B7B7B7"/><path d="M16.297-.119h15.406v1.5A28.407 28.407 0 0 1 24 2.461c-2.568 0-5.135-.36-7.703-1.08v-1.5Z" fill="#E90000"/><g transform="translate(16.297211, -4.400724) translate(0.025112, 0.000000)"><mask id="f" fill="white"><use xlink:href="#e"/></mask><use fill="#FFFFFF" fill-rule="nonzero" xlink:href="#e"/><path d="M7.678-.25C3.315-.25-.25 2.188-.25 5.25c0 .993.601 2.032 1.785 3.127l.413.368.268-.296c.499-.61.532-1.46.1-2.096l-.125-.165c-.297-.376-.441-.695-.441-.938 0-1.826 2.656-3.5 5.928-3.5s5.927 1.674 5.927 3.5l-.002.062c-.016.195-.125.444-.33.733l-.135.175a1.748 1.748 0 0 0 .113 2.352l.165.165.176-.154c1.334-1.17 2.013-2.278 2.013-3.333 0-3.062-3.565-5.5-7.927-5.5Zm0 .5c4.118 0 7.427 2.263 7.427 5l-.006.157c-.059.737-.53 1.546-1.426 2.421l-.219.206-.02-.026a1.249 1.249 0 0 1 .09-1.47l.03-.036c.333-.421.52-.809.548-1.16l.003-.082c0-2.173-2.914-4.01-6.427-4.01-3.514 0-6.428 1.837-6.428 4 0 .328.144.688.422 1.079l.16.21.08.11c.273.414.274.951.005 1.365l-.016.02-.218-.206C.723 6.891.25 6.029.25 5.25c0-2.737 3.31-5 7.428-5Z" fill="#FF0238" fill-rule="nonzero" mask="url(#f)"/></g><path d="M24-4.4c4.24 0 7.678 2.35 7.678 5.25 0 .968-.643 2.016-1.928 3.144l-.416-.404a.964.964 0 0 1-.084-1.29c.307-.388.901-1.087.925-1.379l.003-.072c0-1.923-2.672-3.75-6.178-3.75S17.822-1.074 17.822.85c0 .307.164.674.496 1.094.24.305.646.684.628 1.213-.011.352-.243.632-.696.838-1.285-1.128-1.928-2.176-1.928-3.145 0-2.9 3.438-5.25 7.678-5.25Z" fill="#FF0238" fill-rule="nonzero"/></g><g mask="url(#b)"><g transform="translate(27.637405, 8.250000)"><mask id="h" fill="white"><use xlink:href="#g"/></mask><use fill="#E5E3E4" xlink:href="#g"/><g mask="url(#h)" fill="#B5252F"><path d="M.957 2.25h1v6.622h-1zM2.311 2.25h1v6.622h-1zM3.665 2.25h1v6.622h-1zM5.02 2.25h1v6.622h-1zM6.373 2.25h1v6.622h-1z"/></g></g><path d="M27.937 8.603c.622.408 1.244.613 1.866.613.622 0 1.244-.205 1.866-.613.622.408 1.243.613 1.865.613.622 0 1.244-.205 1.866-.613v2.1h-7.463v-2.1Z" fill="#B5252F"/><path d="M31.612 8.567c.663.497 1.327.74 1.988.74.578 0 1.158-.186 1.737-.564v1.282c0 1.714-.317 3.148-.961 4.298-.62 1.106-1.542 1.946-2.764 2.523-1.221-.577-2.143-1.417-2.763-2.523-.644-1.15-.962-2.584-.962-4.298V8.743c.58.378 1.16.563 1.738.563.66 0 1.325-.242 1.987-.739Z" stroke="#DEB874" strokeWidth="0.5"/></g></g></svg>